<?xml version="1.0" standalone="no"?>
<!DOCTYPE svg PUBLIC "-//W3C//DTD SVG 1.1//EN" "http://www.w3.org/Graphics/SVG/1.1/DTD/svg11.dtd">
<svg width="100%" height="100%" viewBox="0 0 1155 1155" version="1.1" xmlns="http://www.w3.org/2000/svg" xmlns:xlink="http://www.w3.org/1999/xlink" xml:space="preserve" style="fill-rule:evenodd;clip-rule:evenodd;stroke-linejoin:round;stroke-miterlimit:1.41421;">
    <g transform="matrix(1,0,0,1,-0,-0.0623111)">
        <g transform="matrix(4.16667,0,0,4.16667,0,0)">
            <g>
                <g transform="matrix(1.00257,0,0,1.00257,0,-0.710902)">
                    <rect x="0" y="0.724" width="276.279" height="276.276" style="fill:rgb(94,104,113);fill-rule:nonzero;"/>
                </g>
                <path d="M34.012,66.286L34.031,65.863C34.455,65.626 34.953,65.473 35.516,65.403C36.407,65.295 36.969,65.175 37.209,65.055C37.448,64.933 37.615,64.763 37.716,64.548C37.891,64.131 37.98,63.699 37.98,63.265L37.944,61.817L37.963,60.48L37.922,58.912C37.922,58.269 37.944,57.45 37.98,56.481C38.016,55.512 38.033,54.991 38.033,54.924L38.033,49.711C38.033,48.884 38.058,47.988 38.091,47.03C38.128,46.066 38.147,45.404 38.147,45.033C38.147,43.939 38.125,43.304 38.078,43.126C38.019,42.947 37.927,42.817 37.788,42.744C37.646,42.663 37.189,42.597 36.415,42.53C35.822,42.482 35.404,42.435 35.173,42.396C35.115,42.251 35.078,42.134 35.078,42.04C35.078,41.937 35.09,41.811 35.098,41.658C35.407,41.641 35.644,41.622 35.808,41.622L37.613,41.644C38.885,41.644 40.241,41.586 41.667,41.48C42.372,41.421 43.435,41.371 44.85,41.33C44.875,41.441 44.886,41.547 44.886,41.647C44.886,41.775 44.856,41.873 44.8,41.939C44.744,42.012 44.647,42.059 44.505,42.081C42.845,42.221 41.862,42.435 41.561,42.708C41.269,42.984 41.116,43.688 41.116,44.808C41.116,46.882 41.149,49.021 41.216,51.221L41.288,53.025C41.35,53.078 42.182,53.14 43.783,53.217C44.215,53.243 44.474,53.254 44.549,53.254L47.37,53.217L49.233,53.276L54.106,53.123C54.705,53.109 55.073,53.084 55.198,53.042C55.279,50.837 55.315,48.698 55.315,46.637C55.315,44.641 55.27,43.465 55.178,43.109C55.128,42.897 55.036,42.75 54.908,42.672C54.828,42.636 54.159,42.538 52.898,42.368C52.675,42.343 52.469,42.313 52.277,42.271C52.21,42.079 52.179,41.859 52.179,41.616C52.616,41.55 52.889,41.519 53.006,41.519L54.276,41.577C55.435,41.622 56.607,41.644 57.785,41.644C58.54,41.644 59.793,41.602 61.544,41.519C61.533,41.8 61.505,42.048 61.455,42.271C60.965,42.463 60.377,42.585 59.701,42.636C59.266,42.661 58.902,42.73 58.604,42.844C58.361,43.02 58.239,43.385 58.239,43.933C58.239,44.059 58.244,44.203 58.261,44.351C58.272,44.808 58.278,45.108 58.278,45.245L58.278,47.436L58.294,48.812L58.261,50.583L58.278,53.902L58.239,57.027C58.239,57.651 58.255,58.623 58.294,59.945L58.278,62.518C58.278,63.382 58.356,64 58.509,64.37C58.587,64.546 58.715,64.674 58.893,64.752L60.455,65.091C61.221,65.278 61.678,65.437 61.831,65.554C61.979,65.676 62.051,65.813 62.051,65.977L61.99,66.208L61.898,66.222C61.834,66.222 61.75,66.211 61.644,66.183C60.249,65.916 58.785,65.782 57.247,65.782C56.044,65.782 55.19,65.807 54.685,65.849C54.179,65.885 53.126,66.033 51.528,66.286C51.503,66.122 51.486,66.005 51.486,65.921C51.486,65.838 51.503,65.718 51.528,65.565C51.926,65.334 52.55,65.175 53.405,65.08C54.048,65.022 54.552,64.819 54.922,64.468C55.164,64.242 55.287,63.897 55.287,63.457L55.265,60.675C55.304,59.845 55.323,59.386 55.323,59.31C55.323,58.222 55.304,56.629 55.265,54.537C55.228,54.356 55.159,54.242 55.056,54.206C54.711,54.095 53.009,54.12 49.957,54.287C49.336,54.323 48.879,54.34 48.576,54.34C48.264,54.34 47.623,54.323 46.643,54.292C45.666,54.262 44.764,54.242 43.931,54.242C43.485,54.242 43.107,54.253 42.798,54.267C42.216,54.278 41.887,54.287 41.817,54.287C41.525,54.287 41.324,54.34 41.216,54.454C41.107,54.574 41.052,54.78 41.052,55.089L41.074,56.414C41.074,56.634 41.04,57.832 40.976,60.012C40.962,60.46 40.957,60.828 40.957,61.118C40.957,62.858 41.021,64.011 41.152,64.579C41.216,64.846 41.324,65.036 41.494,65.136C41.609,65.206 42.11,65.342 42.99,65.534C43.58,65.657 44.028,65.776 44.335,65.891L44.446,66.08C44.446,66.144 44.421,66.191 44.374,66.23C44.299,66.292 44.19,66.325 44.051,66.325C43.948,66.325 43.825,66.325 43.683,66.319C43.547,66.308 43.274,66.297 42.87,66.286C42.218,66.278 41.416,66.253 40.45,66.208C39.826,66.175 39.278,66.161 38.793,66.161C37.98,66.161 36.68,66.197 34.886,66.269C34.549,66.283 34.254,66.286 34.012,66.286Z" style="fill:white;fill-rule:nonzero;"/>
                <path d="M66.8,65.475C67.082,65.372 67.357,65.302 67.658,65.28C69.596,65.154 70.71,64.915 70.989,64.578C71.267,64.244 71.409,62.593 71.409,59.646L71.39,57.619L71.39,55.5L71.309,53.172L71.351,51.805L71.331,50.304L71.331,48.533L71.292,47.747L71.331,46.742C71.339,46.511 71.351,46.244 71.351,45.934C71.351,45.127 71.309,44.269 71.236,43.378C71.186,43.191 71.111,43.022 71.025,42.855C70.554,42.609 69.802,42.448 68.75,42.364C67.703,42.278 67.109,42.189 66.97,42.08C66.864,42.014 66.812,41.821 66.8,41.521L68.382,41.521L73.369,41.643C74.648,41.643 76.355,41.607 78.493,41.521C78.493,41.749 78.479,41.966 78.449,42.164C78.204,42.239 77.792,42.311 77.215,42.389C76.04,42.526 75.322,42.662 75.063,42.79C74.904,42.855 74.784,42.96 74.712,43.111C74.584,43.345 74.514,43.768 74.489,44.397L74.394,46.853L74.472,55.355L74.472,58.713C74.444,59.769 74.433,60.487 74.433,60.869C74.433,62.297 74.467,63.211 74.539,63.603C74.603,64.002 74.731,64.28 74.898,64.455C75.071,64.622 75.355,64.759 75.753,64.865C76.338,65.004 76.797,65.076 77.129,65.09C77.847,65.118 78.298,65.224 78.493,65.402C78.529,65.567 78.549,65.706 78.549,65.82L78.549,65.976C77.391,66.015 76.544,66.032 75.998,66.032C75.681,66.032 75.113,66.015 74.302,65.984L71.674,66.015L67.199,65.998L66.839,65.998L66.8,65.475Z" style="fill:white;fill-rule:nonzero;"/>
                <path d="M105.38,42.684C105.53,43.675 105.611,44.686 105.611,45.725C105.611,45.931 105.603,46.21 105.592,46.555C105.408,46.597 105.277,46.608 105.188,46.608C105.113,46.608 105.004,46.597 104.865,46.574C104.327,45.073 103.456,43.92 102.244,43.11C101.036,42.297 99.537,41.893 97.752,41.893C96.808,41.893 96.012,42.002 95.366,42.219C94.216,42.617 93.213,43.163 92.344,43.856C91.478,44.553 90.743,45.388 90.147,46.349C89.546,47.315 89.067,48.485 88.719,49.855C88.371,51.233 88.195,52.625 88.195,54.06C88.195,56.791 88.61,59.055 89.437,60.829C90.267,62.617 91.4,63.887 92.837,64.641C94.28,65.404 95.731,65.783 97.195,65.783L98.095,65.766C99.111,65.638 99.81,65.516 100.181,65.402C101.108,65.132 101.874,64.817 102.481,64.449C103.085,64.085 103.676,63.572 104.261,62.907C104.84,62.238 105.33,61.464 105.739,60.581L105.959,60.498C106.02,60.498 106.115,60.542 106.24,60.62C106.227,60.927 106.213,61.124 106.202,61.214C105.675,63.374 105.291,64.856 105.06,65.652C104.854,65.694 104.598,65.766 104.291,65.853C102.801,66.307 100.802,66.535 98.304,66.535C96.29,66.535 94.784,66.399 93.784,66.128C92.782,65.858 91.693,65.427 90.515,64.85C89.331,64.277 88.295,63.508 87.407,62.556C86.516,61.598 85.792,60.392 85.246,58.941C84.698,57.482 84.425,55.892 84.425,54.182C84.425,52.548 84.636,51.127 85.074,49.913C85.508,48.699 86.176,47.468 87.084,46.223C87.989,44.976 89.053,43.94 90.284,43.116C91.515,42.283 92.879,41.701 94.388,41.359C95.441,41.133 96.945,41.016 98.88,41.016C100.298,41.016 101.626,41.203 102.874,41.579C104.124,41.957 104.96,42.328 105.38,42.684Z" style="fill:white;fill-rule:nonzero;"/>
                <path d="M119.041,53.746C119.194,53.604 119.447,53.426 119.804,53.212C120.52,52.774 121.75,51.914 123.494,50.611L128.731,46.331C130.173,45.139 131.185,44.203 131.775,43.521C131.887,43.368 131.979,43.212 132.043,43.045C131.809,42.883 131.55,42.758 131.255,42.688C130.965,42.613 130.5,42.555 129.856,42.518C129.216,42.479 128.835,42.421 128.712,42.337C128.591,42.251 128.534,42.142 128.534,42.02C128.534,41.878 128.576,41.769 128.668,41.689C128.835,41.574 129.069,41.519 129.378,41.519C129.862,41.519 130.285,41.538 130.639,41.577C131.004,41.624 131.814,41.644 133.084,41.644C133.39,41.644 133.616,41.638 133.755,41.624L136.749,41.494C137.058,41.463 137.292,41.452 137.459,41.452C137.615,41.452 137.84,41.471 138.155,41.496C138.155,41.786 138.124,42.026 138.072,42.207C136.693,42.379 135.674,42.599 135.022,42.869C134.652,43.025 133.895,43.465 132.758,44.181C131.898,44.721 131.118,45.309 130.414,45.935L125.513,50.051L122.541,52.44C122.591,52.532 122.669,52.618 122.775,52.705C122.848,52.772 123.037,52.95 123.346,53.242C124.677,54.49 126.482,56.013 128.748,57.829C131.021,59.639 132.795,61.151 134.081,62.371C135.964,64.2 137.74,65.214 139.411,65.403C139.818,65.453 140.107,65.559 140.291,65.721L140.305,65.915L140.269,66.163C139.84,66.188 139.542,66.202 139.389,66.202C138.801,66.202 137.921,66.166 136.738,66.094C136.033,66.055 135.46,66.035 135,66.035C133.168,66.035 131.074,66.077 128.712,66.163C128.675,65.991 128.662,65.86 128.662,65.773L128.675,65.626C128.843,65.478 129.173,65.347 129.673,65.23C130.364,65.061 131.085,64.96 131.851,64.935C132.015,64.935 132.193,64.927 132.388,64.905C132.257,64.71 132.045,64.487 131.75,64.234C131.7,64.183 131.53,64.013 131.235,63.729C130.946,63.443 130.425,62.972 129.684,62.32L127.406,60.502L123.903,57.556C122.742,56.562 121.121,55.289 119.041,53.746ZM111.564,65.732C111.62,65.606 111.72,65.545 111.848,65.534C113.168,65.42 114.204,65.189 114.956,64.843C115.218,64.615 115.351,64.231 115.351,63.699L115.334,61.816L115.334,58.258L115.368,56.704L115.254,51.388L115.293,47.807C115.293,45.79 115.254,44.445 115.173,43.769C115.151,43.513 115.067,43.254 114.925,42.983C114.697,42.844 114.496,42.758 114.346,42.736C113.792,42.644 113.082,42.574 112.207,42.521C112.026,42.404 111.937,42.259 111.937,42.095C111.937,42.037 111.962,41.947 112.01,41.822C112.722,41.786 113.981,41.769 115.783,41.769C116.621,41.769 117.281,41.767 117.768,41.755C118.453,41.733 119.275,41.694 120.249,41.644C120.67,41.683 121.166,41.7 121.734,41.7C121.879,41.775 121.945,41.864 121.945,41.964C121.945,42.042 121.937,42.123 121.906,42.207C121.756,42.284 121.472,42.354 121.046,42.396C119.94,42.513 119.186,42.752 118.793,43.114C118.529,43.368 118.395,43.849 118.395,44.557L118.412,44.913L118.412,56.921L118.545,61.78C118.556,63.315 118.595,64.161 118.659,64.323C118.723,64.476 118.826,64.604 118.969,64.687C119.414,64.955 120.096,65.13 121.021,65.219C121.252,65.244 121.472,65.294 121.692,65.356C121.767,65.528 121.806,65.67 121.806,65.787C121.806,65.921 121.728,66.044 121.572,66.163L120.954,66.177C120.695,66.177 120.074,66.155 119.097,66.108C118.114,66.057 117.384,66.035 116.902,66.035C116.501,66.035 115.95,66.077 115.237,66.163C114.532,66.247 113.561,66.286 112.333,66.286C112.154,66.286 111.906,66.286 111.597,66.269L111.564,65.732Z" style="fill:white;fill-rule:nonzero;"/>
                <path d="M157.69,42.46C157.788,43.301 157.838,43.78 157.838,43.913L157.762,45.618C157.743,46.345 157.707,46.807 157.665,47.016C157.545,47.066 157.439,47.088 157.364,47.088L157.183,47.049C156.777,45.258 156.083,43.95 155.109,43.128C154.131,42.307 152.942,41.895 151.539,41.895C150.079,41.895 148.888,42.307 147.952,43.125C147.025,43.941 146.56,44.891 146.56,45.974C146.56,46.807 146.885,47.567 147.534,48.255C148.186,48.954 149.854,49.987 152.533,51.374C154.571,52.44 156.033,53.304 156.91,53.972C157.796,54.64 158.453,55.414 158.904,56.291C159.35,57.171 159.575,58.143 159.575,59.224C159.575,60.585 159.219,61.867 158.509,63.064C157.801,64.253 156.849,65.155 155.649,65.759C154.451,66.361 152.864,66.667 150.884,66.667C149.166,66.667 147.512,66.389 145.927,65.837C145,65.506 144.432,65.236 144.226,65.035C144.017,64.829 143.923,64.607 143.923,64.378C143.923,64.245 143.934,64.064 143.953,63.846C144.126,62.359 144.22,61.129 144.232,60.171C144.257,59.577 144.298,59.229 144.365,59.129C144.41,59.043 144.502,58.993 144.641,58.993C144.755,58.993 144.841,59.04 144.911,59.118C144.983,59.202 145.025,59.357 145.048,59.583C145.19,61.14 145.919,62.526 147.239,63.757C148.542,64.98 150.021,65.592 151.672,65.592C152.686,65.592 153.616,65.386 154.468,64.963C155.323,64.551 155.98,63.938 156.462,63.145C156.941,62.354 157.183,61.582 157.183,60.828C157.183,59.803 156.821,58.859 156.094,58.004C155.365,57.155 153.903,56.158 151.706,55.016C149.511,53.874 148.083,53.047 147.42,52.527C146.354,51.677 145.546,50.767 145.014,49.812C144.616,49.074 144.421,48.213 144.421,47.233C144.421,45.465 145.123,43.966 146.532,42.736C147.935,41.502 149.818,40.889 152.182,40.889C153.488,40.889 154.613,41.037 155.557,41.329C156.245,41.56 156.955,41.936 157.69,42.46Z" style="fill:white;fill-rule:nonzero;"/>
                <path d="M47.905,112.869C48.977,112.869 50.088,112.718 51.247,112.423C52.4,112.122 53.424,111.627 54.321,110.928C55.215,110.234 55.914,109.443 56.415,108.552C56.919,107.664 57.323,106.531 57.635,105.136C57.938,103.743 58.091,102.356 58.091,100.964C58.091,99.227 57.838,97.511 57.323,95.816C56.93,94.524 56.284,93.371 55.39,92.36C54.499,91.346 53.419,90.561 52.152,90.001C50.89,89.447 49.545,89.169 48.117,89.169C46.953,89.169 45.814,89.363 44.705,89.751C43.597,90.129 42.681,90.614 41.965,91.207C41.255,91.803 40.59,92.649 39.977,93.741C39.364,94.827 38.899,96.027 38.579,97.344C38.256,98.659 38.1,99.823 38.1,100.828C38.1,101.889 38.256,103.089 38.579,104.431C38.899,105.77 39.337,106.929 39.891,107.915C40.448,108.895 41.13,109.767 41.94,110.527C42.751,111.287 43.658,111.866 44.666,112.267C45.674,112.671 46.752,112.869 47.905,112.869ZM34.642,100.964C34.642,99.661 34.797,98.508 35.112,97.492C35.421,96.481 35.948,95.381 36.688,94.195C37.423,93.011 38.317,92.017 39.364,91.226C40.409,90.424 41.851,89.725 43.7,89.11C45.001,88.69 46.644,88.478 48.632,88.478C49.966,88.478 51.28,88.659 52.556,89.015C53.839,89.372 55,89.87 56.042,90.508C57.095,91.143 58.133,92.129 59.18,93.446C59.904,94.37 60.453,95.356 60.823,96.414C61.308,97.801 61.547,99.235 61.547,100.714C61.547,102.398 61.386,103.793 61.06,104.902C60.74,106.007 60.194,107.104 59.425,108.188C58.827,109.031 57.802,110.003 56.351,111.098C55.382,111.836 54.179,112.434 52.736,112.885C51.297,113.339 49.743,113.559 48.075,113.559C46.385,113.559 44.873,113.364 43.547,112.969C42.224,112.576 41.119,112.097 40.23,111.524C39.345,110.961 38.434,110.123 37.499,109.009C36.566,107.901 35.853,106.678 35.366,105.342C34.884,104.005 34.642,102.543 34.642,100.964Z" style="fill:white;fill-rule:nonzero;"/>
                <path d="M73.029,101.187C74.387,101.268 75.941,101.301 77.682,101.301C78.67,101.301 79.536,101.268 80.285,101.209C80.157,100.714 80.015,100.249 79.843,99.828C79.016,97.628 78.551,96.411 78.467,96.183L76.713,91.803L76.523,91.46C76.448,91.611 76.167,92.262 75.696,93.412C74.889,95.387 74.31,96.924 73.959,98.021C73.792,98.517 73.622,99.007 73.443,99.491C73.268,99.979 73.159,100.321 73.115,100.516C73.07,100.711 73.001,100.911 72.917,101.112L73.029,101.187ZM63.931,112.537C64.106,112.423 64.268,112.367 64.407,112.367L64.85,112.367C64.936,112.367 65.089,112.362 65.312,112.348C66.29,112.259 66.872,112.172 67.055,112.081C67.504,111.838 67.888,111.421 68.211,110.822C68.857,109.524 69.598,107.684 70.419,105.297C70.809,104.164 71.057,103.479 71.154,103.234C71.472,102.471 71.773,101.671 72.062,100.822L73.845,95.799C74.123,95.014 74.791,93.206 75.855,90.374C76.117,89.664 76.434,88.709 76.813,87.509L77.445,87.47L78.113,87.492C78.662,88.578 79.149,89.75 79.575,91.006C79.807,91.666 80.185,92.658 80.709,93.975L83.633,101.861L85.192,106.138C86.005,108.563 86.537,110.059 86.791,110.616C87.044,111.17 87.281,111.54 87.501,111.719C87.562,111.769 87.796,111.849 88.214,111.953C88.626,112.053 88.918,112.125 89.082,112.178C89.664,112.359 90.071,112.507 90.302,112.632C90.355,112.782 90.38,112.899 90.38,112.983C90.38,113.047 90.366,113.153 90.322,113.289C89.915,113.303 89.631,113.309 89.467,113.309C88.812,113.309 87.671,113.27 86.033,113.183L84.123,113.136L81.809,113.164C81.658,113.164 81.505,113.158 81.344,113.144C81.188,113.128 81.051,113.122 80.937,113.122L80.517,113.122C80.375,113.111 80.247,113.072 80.135,113.008C80.135,112.832 80.163,112.668 80.224,112.495C80.375,112.423 80.511,112.379 80.636,112.367L82.594,112.231C83.106,112.206 83.493,112.136 83.761,112.019C83.839,111.788 83.878,111.616 83.878,111.496C83.878,111.267 83.705,110.669 83.379,109.702C83.148,109.065 82.948,108.447 82.775,107.867C82.602,107.291 81.92,105.386 80.728,102.153C80.21,102.067 79.754,102.022 79.355,102.022L75.284,102.056L74.081,102.039C73.65,102.039 73.171,102.072 72.65,102.136C72.488,102.515 72.383,102.791 72.33,102.961L70.667,108.224C69.957,110.234 69.598,111.337 69.598,111.54C69.598,111.66 69.654,111.849 69.768,112.114C70.041,112.195 70.4,112.259 70.843,112.331L73.446,112.554C73.588,112.671 73.661,112.78 73.661,112.869C73.661,112.933 73.641,113.033 73.599,113.164C73.023,113.18 72.586,113.183 72.279,113.183C71.258,113.183 70.074,113.144 68.715,113.055C68.097,113.033 67.643,113.022 67.378,113.022C67.105,113.022 66.64,113.033 65.978,113.055C65.543,113.1 65.229,113.122 65.036,113.122C64.733,113.122 64.332,113.1 63.85,113.055L63.85,112.93C63.85,112.835 63.875,112.704 63.931,112.537Z" style="fill:white;fill-rule:nonzero;"/>
                <path d="M102.124,100.895C102.277,100.753 102.53,100.578 102.884,100.358C103.603,99.924 104.836,99.063 106.574,97.76L111.817,93.483C113.26,92.288 114.271,91.352 114.856,90.67C114.972,90.517 115.056,90.361 115.126,90.197C114.892,90.032 114.633,89.91 114.34,89.835C114.045,89.762 113.583,89.707 112.942,89.668C112.299,89.631 111.918,89.57 111.798,89.487C111.675,89.397 111.617,89.294 111.617,89.169C111.617,89.027 111.661,88.918 111.753,88.838C111.915,88.726 112.152,88.668 112.463,88.668C112.945,88.668 113.368,88.687 113.731,88.729C114.084,88.774 114.9,88.796 116.164,88.796C116.476,88.796 116.696,88.788 116.838,88.774L119.835,88.643C120.138,88.615 120.375,88.604 120.542,88.604C120.695,88.604 120.923,88.62 121.235,88.646C121.235,88.938 121.21,89.177 121.157,89.356C119.773,89.531 118.754,89.748 118.108,90.016C117.735,90.177 116.975,90.614 115.841,91.33C114.981,91.87 114.198,92.458 113.497,93.084L108.595,97.2L105.627,99.589C105.677,99.681 105.75,99.77 105.853,99.854C105.928,99.921 106.123,100.099 106.426,100.391C107.76,101.641 109.565,103.164 111.837,104.977C114.101,106.79 115.883,108.3 117.17,109.522C119.049,111.352 120.826,112.362 122.494,112.552C122.898,112.602 123.193,112.71 123.371,112.872L123.388,113.067L123.352,113.312C122.923,113.337 122.63,113.351 122.472,113.351C121.89,113.351 121.004,113.315 119.821,113.242C119.119,113.203 118.545,113.184 118.08,113.184C116.248,113.184 114.154,113.226 111.798,113.312C111.759,113.139 111.739,113.008 111.739,112.925L111.759,112.777C111.926,112.627 112.257,112.496 112.753,112.379C113.441,112.209 114.168,112.109 114.931,112.087C115.101,112.087 115.279,112.076 115.471,112.053C115.34,111.861 115.126,111.636 114.833,111.385C114.783,111.335 114.616,111.162 114.318,110.881C114.026,110.591 113.508,110.124 112.77,109.472L110.492,107.651L106.983,104.704C105.825,103.713 104.204,102.438 102.124,100.895ZM94.646,112.88C94.705,112.758 94.805,112.694 94.936,112.68C96.253,112.568 97.289,112.34 98.044,111.992C98.303,111.764 98.434,111.379 98.434,110.847L98.411,108.965L98.411,105.406L98.453,103.852L98.339,98.537L98.375,94.956C98.375,92.942 98.339,91.595 98.258,90.921C98.236,90.662 98.15,90.405 98.013,90.133C97.782,89.993 97.582,89.907 97.428,89.885C96.874,89.796 96.164,89.723 95.287,89.67C95.106,89.553 95.017,89.409 95.017,89.244C95.017,89.186 95.048,89.099 95.098,88.971C95.808,88.938 97.066,88.918 98.863,88.918C99.704,88.918 100.364,88.916 100.846,88.904C101.531,88.882 102.361,88.846 103.335,88.796C103.75,88.835 104.249,88.849 104.822,88.849C104.961,88.924 105.034,89.013 105.034,89.113C105.034,89.191 105.017,89.272 104.992,89.356C104.839,89.434 104.555,89.503 104.134,89.548C103.023,89.662 102.271,89.899 101.879,90.263C101.611,90.517 101.478,90.999 101.478,91.709L101.495,92.062L101.495,104.072L101.628,108.929C101.642,110.463 101.678,111.313 101.742,111.471C101.806,111.624 101.909,111.75 102.051,111.836C102.5,112.103 103.182,112.282 104.104,112.368C104.335,112.393 104.558,112.446 104.775,112.504C104.85,112.677 104.895,112.819 104.895,112.933C104.895,113.072 104.814,113.192 104.652,113.312L104.037,113.326C103.778,113.326 103.16,113.306 102.174,113.256C101.194,113.209 100.467,113.184 99.988,113.184C99.587,113.184 99.032,113.226 98.322,113.312C97.609,113.398 96.643,113.435 95.418,113.435C95.237,113.435 94.992,113.435 94.677,113.421L94.646,112.88Z" style="fill:white;fill-rule:nonzero;"/>
                <path d="M125.874,113.312C125.885,113.123 125.932,112.956 126.022,112.805C126.991,112.541 127.943,112.363 128.862,112.271C129.477,112.221 129.869,112.081 130.039,111.853C130.171,111.686 130.243,111.079 130.268,110.021L130.396,104.978L130.382,101.558L130.396,97.086L130.396,95.906C130.41,93.216 130.396,91.545 130.356,90.876C130.345,90.754 130.296,90.573 130.21,90.342C129.876,90.191 129.6,90.091 129.38,90.035C129.157,89.985 128.157,89.801 126.395,89.484C126.378,89.345 126.372,89.236 126.372,89.169C126.372,89.089 126.378,88.991 126.395,88.852C126.637,88.852 127.032,88.871 127.581,88.894L130.496,88.983L132.187,89.019L132.683,88.999C132.749,88.999 132.936,89.016 133.237,89.041C133.994,89.041 134.431,89.036 134.546,89.019L136.08,88.852C137.116,88.852 137.84,88.877 138.269,88.913C138.252,89.125 138.205,89.356 138.132,89.607C137.985,89.637 137.316,89.671 136.108,89.715C134.905,89.763 134.211,89.835 134.033,89.941C133.735,90.102 133.585,90.617 133.585,91.478C133.585,91.687 133.574,92.107 133.551,92.734L133.551,93.887L133.565,97.457L133.565,98.665L133.604,105.05L133.551,110.486L133.565,111.678C133.565,112.065 133.632,112.304 133.76,112.396C134.078,112.407 135.019,112.416 136.573,112.43L137.876,112.43L141.193,112.315C142.061,112.293 142.677,112.207 143.044,112.056C143.418,111.906 144.033,111.483 144.907,110.764C145.428,110.31 145.835,109.831 146.13,109.352C146.191,109.244 146.305,109.093 146.456,108.887C146.701,108.559 147.027,107.893 147.433,106.896L148.062,106.896C147.99,107.359 147.904,107.79 147.82,108.197C147.455,109.993 147.205,111.491 147.068,112.688C147.041,112.939 147.024,113.181 146.993,113.396L139.875,113.184C133.749,113.184 130.121,113.22 128.976,113.287C128.623,113.301 128.246,113.312 127.857,113.312L125.874,113.312Z" style="fill:white;fill-rule:nonzero;"/>
                <path d="M151.813,112.76C151.944,112.649 152.052,112.582 152.144,112.554C152.359,112.493 152.735,112.445 153.264,112.406C154.511,112.331 155.288,112.214 155.589,112.058C155.767,111.811 155.856,111.454 155.856,110.997L155.837,109.663L155.856,104.832L155.817,102.543L155.837,97.773L155.742,92.343C155.731,91.051 155.642,90.321 155.497,90.154C155.263,89.915 154.589,89.776 153.461,89.734C152.977,89.725 152.556,89.689 152.189,89.628C152.025,89.539 151.944,89.427 151.944,89.285C151.944,89.191 151.972,89.068 152.036,88.929C152.15,88.873 152.253,88.84 152.345,88.84C152.517,88.84 152.735,88.843 152.988,88.854C153.743,88.882 154.517,88.896 155.319,88.896L156.731,88.854L160.092,88.979C161.771,88.979 163.085,88.962 164.029,88.918C164.971,88.879 165.606,88.854 165.943,88.854C166.235,88.854 166.959,88.865 168.117,88.876L170.827,88.854L171.153,88.915L172.734,88.854L172.929,88.954C172.996,89.06 173.038,89.169 173.066,89.283C173.066,89.466 173.027,89.745 172.963,90.121C172.899,90.494 172.865,90.725 172.865,90.814C172.865,92.162 172.913,93.301 173.002,94.237C172.991,94.312 172.952,94.365 172.893,94.384C172.754,94.384 172.637,94.373 172.531,94.337C172.386,94.089 172.203,93.657 171.96,93.045C171.721,92.427 171.364,91.714 170.891,90.912C170.573,90.372 170.323,90.051 170.139,89.948C169.961,89.848 169.593,89.795 169.025,89.795C168.911,89.795 168.323,89.784 167.274,89.753C166.992,89.745 166.717,89.734 166.447,89.734L160.963,89.854L160.482,89.854C159.777,89.854 159.354,89.94 159.212,90.121C158.992,90.424 158.883,91.324 158.883,92.822C158.883,92.972 158.917,94.504 158.981,97.417L158.981,100.079C159.123,100.115 159.273,100.135 159.443,100.135L159.766,100.135C159.978,100.135 160.295,100.14 160.716,100.151C161.378,100.179 161.818,100.19 162.052,100.19C162.205,100.19 162.339,100.185 162.453,100.168C163.829,100.124 165.594,100.093 167.761,100.093C168.432,99.984 168.827,99.848 168.942,99.692C169.134,99.469 169.279,98.873 169.37,97.915C169.465,96.949 169.685,96.403 170.022,96.272C170.186,96.272 170.345,96.308 170.484,96.373C170.509,96.476 170.523,96.568 170.523,96.657C170.523,96.746 170.509,96.893 170.484,97.099C170.443,97.564 170.42,99.043 170.42,101.527C170.42,102.184 170.454,102.924 170.518,103.738C170.579,104.554 170.61,104.994 170.61,105.06C170.61,105.172 170.596,105.325 170.551,105.511C170.448,105.564 170.367,105.592 170.301,105.592L170.167,105.592C169.961,105.233 169.76,104.676 169.571,103.919C169.234,102.624 168.883,101.811 168.527,101.49C168.165,101.153 167.572,100.995 166.753,100.995C166.575,100.995 166.249,101.003 165.775,101.025C165.302,101.039 164.603,101.05 163.673,101.05L162.425,101.05C160.649,101.05 159.485,101.089 158.936,101.17L158.925,101.802L158.936,105.325L158.925,107.544L158.936,109.705C158.95,111.011 159.039,111.763 159.187,111.966C159.41,112.253 159.88,112.395 160.613,112.395L161.788,112.373C161.891,112.373 162.289,112.379 162.988,112.398C163.687,112.423 164.556,112.429 165.578,112.429C168.059,112.429 169.707,112.331 170.523,112.114C171.348,111.902 172.024,111.524 172.556,110.986C173.091,110.449 173.765,109.285 174.57,107.503C174.82,106.973 175.065,106.709 175.316,106.709C175.436,106.709 175.558,106.762 175.703,106.865C175.335,108.137 175.124,108.973 175.074,109.371C174.934,110.273 174.848,111.195 174.826,112.128C174.826,112.554 174.725,112.91 174.519,113.192L174.096,113.192L168.702,113.245L166.288,113.183L160.543,113.225L158.201,113.225C157.909,113.225 157.63,113.228 157.371,113.236C155.074,113.284 153.378,113.309 152.297,113.309C152.103,113.309 151.972,113.281 151.899,113.22C151.83,113.164 151.799,113.066 151.799,112.941L151.813,112.76Z" style="fill:white;fill-rule:nonzero;"/>
                <path d="M179.209,88.669L180.119,88.669C180.448,88.669 181.169,88.683 182.28,88.708C184.001,88.763 185.427,88.794 186.571,88.794L188.791,88.727C189.105,88.727 189.409,88.755 189.696,88.8C189.788,88.891 189.832,88.992 189.832,89.089L189.832,89.278L189.348,89.485L189.136,89.485L188.058,89.507L187.501,89.485C187.061,89.485 186.711,89.585 186.446,89.78C186.24,89.922 186.137,90.067 186.137,90.228C186.137,90.398 186.223,90.607 186.401,90.869C186.468,90.966 186.571,91.125 186.711,91.331C186.967,91.762 187.301,92.266 187.724,92.846C188.326,93.687 188.966,94.686 189.646,95.836C189.905,96.299 190.189,96.736 190.481,97.162L193.397,101.572C193.592,101.33 193.851,100.971 194.187,100.492L196.955,96.527L200.155,91.746C200.439,91.309 200.606,90.983 200.654,90.768C200.676,90.662 200.693,90.557 200.693,90.44C200.693,90.167 200.573,89.944 200.331,89.774C199.943,89.498 199.094,89.301 197.799,89.161C197.713,89.153 197.593,89.136 197.443,89.109C197.354,88.964 197.312,88.841 197.312,88.735C197.312,88.669 197.317,88.585 197.334,88.496L198.328,88.479L201.921,88.607L204.808,88.524C204.878,88.524 205.154,88.529 205.613,88.54L205.552,89.295C205.465,89.32 205.323,89.342 205.131,89.356L204.677,89.409C204.597,89.42 204.471,89.434 204.31,89.446C204.04,89.543 203.834,89.657 203.681,89.766C201.806,91.712 200.211,93.567 198.896,95.338C197.579,97.109 196.471,98.716 195.56,100.167C195.265,100.64 195.031,100.993 194.85,101.224C194.519,101.659 194.316,101.982 194.257,102.188C194.109,102.675 194.043,103.421 194.043,104.421C194.043,108.362 194.109,110.678 194.257,111.389C194.332,111.745 194.435,111.957 194.566,112.032C194.903,112.199 196.237,112.388 198.568,112.617L198.568,112.845C198.568,112.984 198.526,113.168 198.437,113.371L193.519,113.246L190.236,113.394L187.546,113.394C187.29,113.394 187.011,113.388 186.699,113.371C186.652,113.226 186.624,113.121 186.624,113.048C186.624,112.981 186.644,112.887 186.683,112.764C186.772,112.681 186.861,112.633 186.95,112.617L189.428,112.241C190.281,111.962 190.762,111.776 190.86,111.67C191.018,111.522 191.108,111.285 191.155,110.974C191.166,110.742 191.169,108.988 191.169,105.705C191.169,104.482 191.133,103.733 191.046,103.463C190.963,103.193 190.693,102.714 190.236,102.032L187.719,98.206L183.439,91.96C182.703,90.902 182.063,90.197 181.523,89.833C181.278,89.671 180.676,89.543 179.718,89.462C179.615,89.462 179.462,89.446 179.264,89.42L179.209,88.669Z" style="fill:white;fill-rule:nonzero;"/>
                <path d="M55.773,135.693C55.929,136.688 56.01,137.698 56.01,138.737C56.01,138.943 56.002,139.219 55.991,139.567C55.81,139.606 55.679,139.617 55.587,139.617C55.512,139.617 55.4,139.606 55.261,139.584C54.724,138.085 53.852,136.93 52.638,136.117C51.432,135.309 49.937,134.908 48.155,134.908C47.21,134.908 46.409,135.017 45.76,135.231C44.618,135.629 43.61,136.175 42.744,136.869C41.875,137.568 41.145,138.403 40.541,139.361C39.942,140.324 39.463,141.5 39.118,142.867C38.765,144.242 38.595,145.64 38.595,147.077C38.595,149.806 39.01,152.067 39.834,153.847C40.664,155.626 41.794,156.902 43.234,157.654C44.676,158.414 46.124,158.793 47.595,158.793L48.494,158.779C49.513,158.648 50.204,158.528 50.574,158.408C51.507,158.147 52.27,157.826 52.877,157.464C53.484,157.097 54.075,156.584 54.654,155.922C55.233,155.256 55.726,154.476 56.138,153.593L56.361,153.516C56.42,153.516 56.511,153.549 56.637,153.635C56.628,153.936 56.609,154.137 56.601,154.228C56.071,156.392 55.69,157.868 55.45,158.662C55.25,158.712 54.997,158.779 54.685,158.865C53.198,159.324 51.204,159.55 48.706,159.55C46.693,159.55 45.18,159.414 44.181,159.141C43.181,158.871 42.089,158.436 40.912,157.863C39.731,157.289 38.695,156.52 37.801,155.565C36.913,154.607 36.191,153.407 35.646,151.953C35.094,150.497 34.821,148.907 34.821,147.194C34.821,145.562 35.039,144.139 35.473,142.923C35.907,141.711 36.57,140.483 37.481,139.233C38.383,137.988 39.452,136.949 40.686,136.128C41.914,135.295 43.278,134.713 44.782,134.368C45.84,134.145 47.336,134.028 49.274,134.028C50.689,134.028 52.02,134.215 53.273,134.585C54.526,134.969 55.359,135.34 55.773,135.693Z" style="fill:white;fill-rule:nonzero;"/>
                <path d="M61.767,159.3L61.784,158.88C62.21,158.64 62.711,158.487 63.268,158.418C64.159,158.309 64.725,158.189 64.961,158.07C65.201,157.947 65.376,157.774 65.474,157.563C65.644,157.145 65.733,156.708 65.733,156.276L65.694,154.831L65.719,153.492L65.677,151.929C65.677,151.281 65.694,150.462 65.733,149.49C65.769,148.524 65.791,148.006 65.791,147.933L65.791,142.723C65.791,141.896 65.808,140.999 65.847,140.041C65.883,139.078 65.905,138.415 65.905,138.045C65.905,136.95 65.878,136.315 65.83,136.134C65.78,135.956 65.683,135.828 65.541,135.759C65.404,135.675 64.947,135.611 64.17,135.544C63.572,135.491 63.16,135.447 62.931,135.405C62.864,135.266 62.834,135.146 62.834,135.054C62.834,134.951 62.839,134.826 62.856,134.673C63.165,134.65 63.399,134.636 63.563,134.636L65.365,134.656C66.643,134.656 67.997,134.597 69.428,134.492C70.127,134.436 71.185,134.389 72.605,134.344C72.63,134.453 72.644,134.558 72.644,134.659C72.644,134.787 72.611,134.884 72.558,134.951C72.502,135.021 72.402,135.071 72.26,135.093C70.598,135.235 69.617,135.444 69.319,135.72C69.019,135.995 68.868,136.7 68.868,137.822C68.868,139.894 68.902,142.033 68.969,144.232L69.041,146.04C69.105,146.093 69.935,146.154 71.533,146.226C71.973,146.257 72.227,146.268 72.305,146.268L75.125,146.226L76.988,146.288L81.856,146.137C82.46,146.126 82.828,146.095 82.953,146.056C83.034,143.851 83.073,141.709 83.073,139.646C83.073,137.652 83.02,136.474 82.937,136.123C82.881,135.906 82.789,135.761 82.664,135.683C82.586,135.65 81.915,135.547 80.653,135.38C80.433,135.352 80.221,135.321 80.032,135.285C79.971,135.09 79.937,134.87 79.937,134.625C80.369,134.567 80.648,134.528 80.759,134.528L82.026,134.586C83.193,134.636 84.362,134.656 85.54,134.656C86.295,134.656 87.548,134.62 89.3,134.528C89.286,134.815 89.258,135.06 89.21,135.285C88.718,135.472 88.133,135.594 87.462,135.65C87.019,135.672 86.657,135.742 86.359,135.856C86.114,136.031 85.997,136.394 85.997,136.939C85.997,137.067 86.003,137.212 86.016,137.363C86.03,137.822 86.036,138.117 86.036,138.256L86.036,140.448L86.058,141.821L86.016,143.595L86.036,146.914L85.997,150.041C85.997,150.662 86.014,151.634 86.058,152.957L86.036,155.527C86.036,156.396 86.106,157.017 86.27,157.382C86.345,157.563 86.473,157.688 86.649,157.766L88.205,158.1C88.977,158.292 89.439,158.448 89.584,158.568C89.734,158.688 89.804,158.827 89.804,158.991L89.751,159.22L89.656,159.236C89.586,159.236 89.508,159.225 89.405,159.197C88.007,158.93 86.546,158.794 85.006,158.794C83.797,158.794 82.953,158.821 82.444,158.863C81.934,158.897 80.884,159.044 79.28,159.3C79.258,159.128 79.244,159.016 79.244,158.933C79.244,158.852 79.258,158.732 79.28,158.576C79.676,158.345 80.305,158.189 81.163,158.095C81.8,158.033 82.307,157.827 82.678,157.482C82.923,157.251 83.045,156.911 83.045,156.468L83.02,153.689C83.062,152.854 83.079,152.397 83.079,152.322C83.079,151.233 83.062,149.643 83.02,147.552C82.984,147.368 82.917,147.254 82.811,147.22C82.466,147.106 80.764,147.131 77.71,147.301C77.091,147.337 76.629,147.354 76.331,147.354C76.019,147.354 75.379,147.337 74.401,147.307C73.418,147.271 72.516,147.254 71.684,147.254C71.241,147.254 70.859,147.268 70.553,147.282C69.963,147.29 69.64,147.301 69.578,147.301C69.28,147.301 69.08,147.354 68.971,147.465C68.857,147.585 68.807,147.794 68.807,148.1L68.832,149.429C68.832,149.649 68.793,150.841 68.729,153.026C68.723,153.469 68.712,153.837 68.712,154.132C68.712,155.87 68.776,157.025 68.902,157.593C68.969,157.855 69.08,158.05 69.247,158.145C69.361,158.22 69.865,158.356 70.742,158.546C71.333,158.668 71.775,158.788 72.087,158.902L72.207,159.094C72.207,159.158 72.179,159.203 72.124,159.245C72.046,159.306 71.943,159.337 71.806,159.337C71.7,159.337 71.581,159.337 71.441,159.334C71.302,159.323 71.032,159.312 70.623,159.3C69.977,159.295 69.166,159.264 68.2,159.22C67.579,159.186 67.03,159.172 66.546,159.172C65.733,159.172 64.435,159.209 62.644,159.284C62.296,159.295 62.012,159.3 61.767,159.3Z" style="fill:white;fill-rule:nonzero;"/>
                <path d="M94.557,158.621C94.687,158.516 94.79,158.443 94.885,158.418C95.102,158.357 95.478,158.31 96.007,158.268C97.26,158.195 98.032,158.076 98.327,157.923C98.511,157.672 98.597,157.315 98.597,156.862L98.58,155.525L98.597,150.693L98.558,148.404L98.58,143.634L98.483,138.207C98.472,136.912 98.391,136.185 98.238,136.018C98.007,135.779 97.33,135.639 96.2,135.595C95.721,135.584 95.3,135.553 94.93,135.489C94.76,135.403 94.676,135.294 94.676,135.149C94.676,135.055 94.713,134.929 94.771,134.79C94.885,134.734 94.994,134.701 95.08,134.701C95.261,134.701 95.478,134.707 95.732,134.718C96.484,134.746 97.26,134.757 98.062,134.757L99.474,134.718L102.839,134.843C104.521,134.843 105.829,134.826 106.771,134.779C107.709,134.74 108.347,134.718 108.678,134.718C108.971,134.718 109.697,134.729 110.859,134.74L113.568,134.718L113.891,134.776L115.476,134.718L115.671,134.815C115.732,134.921 115.782,135.03 115.801,135.144C115.801,135.33 115.768,135.603 115.707,135.987C115.643,136.352 115.607,136.586 115.607,136.681C115.607,138.026 115.648,139.162 115.737,140.095C115.732,140.173 115.693,140.223 115.634,140.245C115.498,140.245 115.381,140.237 115.267,140.195C115.125,139.95 114.941,139.516 114.702,138.906C114.465,138.288 114.114,137.575 113.638,136.773C113.318,136.235 113.061,135.912 112.88,135.806C112.705,135.706 112.329,135.656 111.766,135.656C111.647,135.656 111.067,135.645 110.009,135.614C109.728,135.603 109.458,135.595 109.188,135.595L103.708,135.717L103.223,135.717C102.518,135.717 102.092,135.801 101.95,135.987C101.733,136.285 101.633,137.185 101.633,138.683C101.633,138.831 101.661,140.368 101.725,143.275L101.725,145.943C101.864,145.976 102.014,145.993 102.179,145.993L102.502,145.993C102.719,145.993 103.034,145.998 103.457,146.018C104.117,146.043 104.565,146.054 104.794,146.054C104.947,146.054 105.083,146.051 105.197,146.035C106.565,145.982 108.336,145.959 110.499,145.959C111.173,145.843 111.566,145.709 111.686,145.556C111.872,145.33 112.017,144.734 112.112,143.776C112.209,142.81 112.421,142.264 112.763,142.133C112.93,142.133 113.089,142.169 113.223,142.236C113.251,142.334 113.267,142.429 113.267,142.52C113.267,142.604 113.251,142.752 113.223,142.958C113.187,143.425 113.164,144.907 113.164,147.391C113.164,148.048 113.192,148.789 113.256,149.596C113.32,150.415 113.348,150.852 113.348,150.927C113.348,151.036 113.331,151.189 113.292,151.376C113.187,151.426 113.106,151.454 113.039,151.454L112.905,151.454C112.699,151.097 112.502,150.54 112.307,149.78C111.975,148.485 111.63,147.675 111.268,147.349C110.9,147.018 110.31,146.856 109.497,146.856C109.319,146.856 108.987,146.87 108.522,146.89C108.046,146.904 107.339,146.915 106.406,146.915L105.161,146.915C103.393,146.915 102.226,146.956 101.672,147.034L101.661,147.664L101.672,151.189L101.661,153.403L101.672,155.572C101.689,156.876 101.772,157.627 101.928,157.833C102.145,158.117 102.621,158.26 103.354,158.26L104.529,158.237C104.632,158.237 105.027,158.24 105.732,158.262C106.428,158.287 107.291,158.293 108.322,158.293C110.797,158.293 112.449,158.195 113.273,157.975C114.092,157.764 114.766,157.388 115.3,156.85C115.835,156.307 116.506,155.146 117.314,153.364C117.559,152.835 117.806,152.57 118.052,152.57C118.168,152.57 118.302,152.626 118.447,152.726C118.077,154.002 117.865,154.837 117.812,155.235C117.673,156.138 117.589,157.057 117.564,157.992C117.564,158.418 117.461,158.778 117.261,159.053L116.835,159.053L111.452,159.112L109.032,159.045L103.281,159.089L100.937,159.089C100.644,159.089 100.374,159.089 100.115,159.101C97.817,159.145 96.122,159.173 95.033,159.173C94.841,159.173 94.713,159.142 94.637,159.081C94.568,159.025 94.534,158.931 94.534,158.808L94.557,158.621Z" style="fill:white;fill-rule:nonzero;"/>
                <path d="M137.536,135.471C137.636,136.312 137.689,136.797 137.689,136.925L137.611,138.629C137.592,139.353 137.558,139.818 137.519,140.027C137.394,140.075 137.291,140.102 137.216,140.102L137.032,140.058C136.625,138.273 135.932,136.959 134.957,136.14C133.977,135.318 132.791,134.909 131.385,134.909C129.931,134.909 128.735,135.318 127.806,136.134C126.873,136.95 126.408,137.903 126.408,138.989C126.408,139.818 126.734,140.579 127.383,141.266C128.037,141.965 129.703,143.001 132.379,144.388C134.426,145.457 135.89,146.315 136.762,146.983C137.642,147.655 138.305,148.429 138.753,149.303C139.199,150.186 139.427,151.158 139.427,152.238C139.427,153.597 139.062,154.881 138.36,156.075C137.656,157.265 136.701,158.17 135.5,158.771C134.303,159.375 132.716,159.682 130.735,159.682C129.015,159.682 127.364,159.403 125.782,158.852C124.849,158.52 124.281,158.248 124.072,158.05C123.869,157.841 123.771,157.618 123.771,157.39C123.771,157.256 123.782,157.081 123.808,156.864C123.983,155.374 124.069,154.143 124.078,153.185C124.111,152.589 124.15,152.241 124.214,152.138C124.259,152.052 124.356,152.004 124.493,152.004C124.607,152.004 124.69,152.052 124.763,152.132C124.827,152.213 124.88,152.372 124.902,152.595C125.041,154.151 125.771,155.541 127.091,156.772C128.394,157.991 129.869,158.607 131.524,158.607C132.535,158.607 133.462,158.404 134.32,157.977C135.164,157.563 135.835,156.953 136.314,156.159C136.793,155.368 137.032,154.594 137.032,153.842C137.032,152.815 136.667,151.871 135.943,151.016C135.211,150.169 133.749,149.167 131.555,148.025C129.363,146.886 127.929,146.059 127.277,145.541C126.197,144.686 125.403,143.778 124.866,142.823C124.467,142.085 124.275,141.225 124.275,140.25C124.275,138.473 124.974,136.978 126.383,135.747C127.79,134.514 129.669,133.901 132.033,133.901C133.337,133.901 134.465,134.049 135.411,134.344C136.099,134.572 136.804,134.948 137.536,135.471Z" style="fill:white;fill-rule:nonzero;"/>
                <path d="M159.241,135.471C159.344,136.312 159.397,136.797 159.397,136.925L159.316,138.629C159.294,139.353 159.263,139.818 159.219,140.027C159.099,140.075 159.001,140.102 158.921,140.102L158.737,140.058C158.33,138.273 157.637,136.959 156.662,136.14C155.688,135.318 154.496,134.909 153.092,134.909C151.636,134.909 150.444,135.318 149.511,136.134C148.581,136.95 148.116,137.903 148.116,138.989C148.116,139.818 148.439,140.579 149.093,141.266C149.739,141.965 151.408,143.001 154.089,144.388C156.125,145.457 157.59,146.315 158.469,146.983C159.349,147.655 160.015,148.429 160.458,149.303C160.903,150.186 161.132,151.158 161.132,152.238C161.132,153.597 160.772,154.881 160.062,156.075C159.355,157.265 158.4,158.17 157.205,158.771C156.005,159.375 154.421,159.682 152.438,159.682C150.714,159.682 149.068,159.403 147.487,158.852C146.554,158.52 145.986,158.248 145.78,158.05C145.579,157.841 145.476,157.618 145.476,157.39C145.476,157.256 145.487,157.081 145.515,156.864C145.682,155.374 145.78,154.143 145.791,153.185C145.81,152.589 145.855,152.241 145.922,152.138C145.969,152.052 146.061,152.004 146.197,152.004C146.311,152.004 146.395,152.052 146.467,152.132C146.537,152.213 146.582,152.372 146.609,152.595C146.749,154.151 147.481,155.541 148.795,156.772C150.096,157.991 151.575,158.607 153.234,158.607C154.242,158.607 155.172,158.404 156.025,157.977C156.874,157.563 157.539,156.953 158.021,156.159C158.497,155.368 158.737,154.594 158.737,153.842C158.737,152.815 158.375,151.871 157.648,151.016C156.918,150.169 155.454,149.167 153.265,148.025C151.071,146.886 149.642,146.059 148.974,145.541C147.907,144.686 147.108,143.778 146.57,142.823C146.169,142.085 145.975,141.225 145.975,140.25C145.975,138.473 146.685,136.978 148.088,135.747C149.489,134.514 151.374,133.901 153.736,133.901C155.042,133.901 156.169,134.049 157.119,134.344C157.804,134.572 158.517,134.948 159.241,135.471Z" style="fill:white;fill-rule:nonzero;"/>
                <path d="M166.614,158.621C166.736,158.516 166.85,158.443 166.942,158.418C167.159,158.357 167.541,158.31 168.059,158.268C169.312,158.195 170.092,158.076 170.387,157.923C170.568,157.672 170.654,157.315 170.654,156.862L170.638,155.525L170.654,150.693L170.615,148.404L170.638,143.634L170.54,138.207C170.532,136.912 170.443,136.185 170.295,136.018C170.064,135.779 169.387,135.639 168.259,135.595C167.778,135.584 167.357,135.553 166.987,135.489C166.82,135.403 166.736,135.294 166.736,135.149C166.736,135.055 166.772,134.929 166.836,134.79C166.948,134.734 167.054,134.701 167.137,134.701C167.318,134.701 167.535,134.707 167.789,134.718C168.543,134.746 169.318,134.757 170.117,134.757L171.531,134.718L174.893,134.843C176.577,134.843 177.886,134.826 178.827,134.779C179.771,134.74 180.412,134.718 180.74,134.718C181.033,134.718 181.754,134.729 182.912,134.74L185.628,134.718L185.956,134.776L187.532,134.718L187.727,134.815C187.788,134.921 187.839,135.03 187.864,135.144C187.864,135.33 187.827,135.603 187.761,135.987C187.699,136.352 187.666,136.586 187.666,136.681C187.666,138.026 187.708,139.162 187.802,140.095C187.788,140.173 187.752,140.223 187.688,140.245C187.555,140.245 187.438,140.237 187.329,140.195C187.187,139.95 187,139.516 186.761,138.906C186.53,138.288 186.165,137.575 185.697,136.773C185.369,136.235 185.121,135.912 184.937,135.806C184.762,135.706 184.388,135.656 183.829,135.656C183.703,135.656 183.124,135.645 182.074,135.614C181.793,135.603 181.515,135.595 181.244,135.595L175.764,135.717L175.28,135.717C174.575,135.717 174.155,135.801 174.013,135.987C173.793,136.285 173.69,137.185 173.69,138.683C173.69,138.831 173.717,140.368 173.779,143.275L173.779,145.943C173.921,145.976 174.071,145.993 174.235,145.993L174.561,145.993C174.776,145.993 175.099,145.998 175.514,146.018C176.174,146.043 176.625,146.054 176.853,146.054C177.012,146.054 177.14,146.051 177.251,146.035C178.63,145.982 180.392,145.959 182.556,145.959C183.233,145.843 183.628,145.709 183.742,145.556C183.932,145.33 184.074,144.734 184.177,143.776C184.269,142.81 184.483,142.264 184.82,142.133C184.987,142.133 185.143,142.169 185.279,142.236C185.307,142.334 185.318,142.429 185.318,142.52C185.318,142.604 185.307,142.752 185.279,142.958C185.238,143.425 185.221,144.907 185.221,147.391C185.221,148.048 185.257,148.789 185.31,149.596C185.383,150.415 185.41,150.852 185.41,150.927C185.41,151.036 185.391,151.189 185.352,151.376C185.249,151.426 185.168,151.454 185.101,151.454L184.968,151.454C184.762,151.097 184.555,150.54 184.372,149.78C184.035,148.485 183.687,147.675 183.319,147.349C182.965,147.018 182.372,146.856 181.548,146.856C181.375,146.856 181.049,146.87 180.573,146.89C180.103,146.904 179.398,146.915 178.465,146.915L177.221,146.915C175.452,146.915 174.285,146.956 173.737,147.034L173.717,147.664L173.737,151.189L173.717,153.403L173.737,155.572C173.748,156.876 173.832,157.627 173.985,157.833C174.202,158.117 174.678,158.26 175.411,158.26L176.588,158.237C176.689,158.237 177.09,158.24 177.789,158.262C178.488,158.287 179.351,158.293 180.378,158.293C182.854,158.293 184.505,158.195 185.33,157.975C186.148,157.764 186.825,157.388 187.36,156.85C187.886,156.307 188.563,155.146 189.37,153.364C189.621,152.835 189.863,152.57 190.116,152.57C190.228,152.57 190.359,152.626 190.504,152.726C190.133,154.002 189.924,154.837 189.869,155.235C189.727,156.138 189.649,157.057 189.624,157.992C189.624,158.418 189.521,158.778 189.317,159.053L188.894,159.053L183.503,159.112L181.089,159.045L175.341,159.089L173.005,159.089C172.704,159.089 172.428,159.089 172.172,159.101C169.874,159.145 168.179,159.173 167.09,159.173C166.9,159.173 166.772,159.142 166.7,159.081C166.63,159.025 166.591,158.931 166.591,158.808L166.614,158.621Z" style="fill:white;fill-rule:nonzero;"/>
                <path d="M194.695,159.174C194.706,158.987 194.756,158.82 194.845,158.67C195.817,158.402 196.764,158.224 197.691,158.132C198.301,158.085 198.691,157.946 198.867,157.717C198.992,157.547 199.067,156.94 199.092,155.885L199.223,150.836L199.204,147.42L199.223,142.947L199.223,141.767C199.237,139.079 199.217,137.406 199.187,136.743C199.17,136.615 199.123,136.437 199.031,136.208C198.702,136.055 198.421,135.955 198.207,135.896C197.981,135.843 196.987,135.662 195.219,135.345C195.207,135.203 195.202,135.097 195.202,135.033C195.202,134.95 195.207,134.849 195.221,134.719C195.458,134.719 195.856,134.727 196.408,134.752L199.323,134.844L201.011,134.88L201.504,134.861C201.573,134.861 201.757,134.877 202.063,134.9C202.824,134.9 203.255,134.894 203.372,134.88L204.904,134.719C205.937,134.719 206.667,134.735 207.09,134.771C207.073,134.989 207.028,135.217 206.953,135.468C206.806,135.498 206.14,135.537 204.934,135.576C203.731,135.621 203.038,135.696 202.854,135.799C202.554,135.966 202.409,136.481 202.409,137.339C202.409,137.551 202.398,137.968 202.37,138.595L202.37,139.748L202.392,143.318L202.392,144.529L202.425,150.912L202.37,156.344L202.392,157.536C202.392,157.929 202.453,158.168 202.581,158.26C202.902,158.272 203.837,158.283 205.394,158.294L206.7,158.294L210.017,158.18C210.88,158.16 211.506,158.071 211.874,157.921C212.241,157.767 212.865,157.344 213.728,156.629C214.258,156.175 214.664,155.69 214.957,155.214C215.021,155.103 215.126,154.958 215.285,154.746C215.522,154.423 215.853,153.758 216.254,152.758L216.884,152.758C216.817,153.217 216.73,153.652 216.644,154.061C216.282,155.857 216.031,157.355 215.895,158.55C215.87,158.806 215.845,159.043 215.823,159.26L208.694,159.043C202.579,159.043 198.942,159.085 197.797,159.151C197.441,159.163 197.065,159.174 196.678,159.174L194.695,159.174Z" style="fill:white;fill-rule:nonzero;"/>
                <path d="M220.074,159.174C220.091,158.987 220.136,158.82 220.222,158.67C221.197,158.402 222.143,158.224 223.062,158.132C223.683,158.085 224.073,157.946 224.246,157.717C224.371,157.547 224.446,156.94 224.471,155.885L224.597,150.836L224.58,147.42L224.597,142.947L224.597,141.767C224.616,139.079 224.597,137.406 224.563,136.743C224.547,136.615 224.502,136.437 224.413,136.208C224.084,136.055 223.803,135.955 223.58,135.896C223.36,135.843 222.363,135.662 220.598,135.345C220.584,135.203 220.576,135.097 220.576,135.033C220.576,134.95 220.584,134.849 220.601,134.719C220.837,134.719 221.236,134.727 221.784,134.752L224.7,134.844L226.384,134.88L226.883,134.861C226.952,134.861 227.139,134.877 227.44,134.9C228.203,134.9 228.632,134.894 228.746,134.88L230.283,134.719C231.319,134.719 232.046,134.735 232.472,134.771C232.458,134.989 232.408,135.217 232.333,135.468C232.188,135.498 231.514,135.537 230.311,135.576C229.108,135.621 228.409,135.696 228.234,135.799C227.938,135.966 227.785,136.481 227.785,137.339C227.785,137.551 227.771,137.968 227.752,138.595L227.752,139.748L227.771,143.318L227.771,144.529L227.81,150.912L227.752,156.344L227.771,157.536C227.771,157.929 227.832,158.168 227.963,158.26C228.281,158.272 229.217,158.283 230.773,158.294L232.079,158.294L235.385,158.18C236.259,158.16 236.88,158.071 237.253,157.921C237.618,157.767 238.236,157.344 239.105,156.629C239.631,156.175 240.035,155.69 240.336,155.214C240.394,155.103 240.506,154.958 240.664,154.746C240.901,154.423 241.227,153.758 241.639,152.758L242.268,152.758C242.188,153.217 242.11,153.652 242.023,154.061C241.656,155.857 241.405,157.355 241.274,158.55C241.249,158.806 241.224,159.043 241.202,159.26L234.076,159.043C227.949,159.043 224.321,159.085 223.182,159.151C222.826,159.163 222.447,159.174 222.057,159.174L220.074,159.174Z" style="fill:white;fill-rule:nonzero;"/>
                <path d="M34.936,181.716L34.92,181.413C35.092,181.19 35.596,181.079 36.423,181.079L38.197,181.09L39.228,181.112L39.682,181.09C41.347,181.09 42.346,181.118 42.695,181.171C42.706,181.318 42.717,181.43 42.717,181.505C42.717,181.619 42.697,181.778 42.678,181.992L40.812,182.067C40.723,182.081 40.603,182.109 40.45,182.162C40.403,182.296 40.375,182.39 40.375,182.454C40.375,182.532 40.414,182.652 40.489,182.816C40.589,183.036 40.684,183.27 40.776,183.51L41.99,186.89L44.878,194.117C45.206,194.997 45.435,195.568 45.546,195.824C45.905,196.629 46.359,197.756 46.913,199.204C47.106,199.697 47.568,200.783 48.295,202.446C48.331,202.549 48.414,202.713 48.526,202.944C49.102,202.014 49.94,200.382 51.054,198.054C51.906,196.264 52.455,195.033 52.675,194.353L52.522,193.975L49.264,186.52C48.843,185.59 48.506,184.852 48.267,184.306C47.752,183.159 47.39,182.499 47.156,182.34C46.922,182.179 46.228,182.056 45.092,181.992L44.694,181.897C44.585,181.789 44.535,181.661 44.535,181.516C44.563,181.407 44.622,181.318 44.708,181.254C45.114,181.243 45.401,181.237 45.571,181.237L46.774,181.276L47.384,181.254L48.434,181.254L49.378,181.237L50.369,181.237L52.168,181.173C52.282,181.173 52.455,181.185 52.681,181.19L52.992,181.173C53.171,181.173 53.307,181.221 53.391,181.31C53.482,181.396 53.527,181.494 53.527,181.602C53.527,181.7 53.494,181.806 53.446,181.925C53.249,182.006 52.884,182.067 52.357,182.117C51.606,182.209 51.168,182.29 51.04,182.365C50.921,182.443 50.862,182.541 50.862,182.663C50.862,182.903 51.355,184.164 52.341,186.448L54.293,190.797C54.886,189.619 55.694,187.762 56.716,185.225C57.147,184.175 57.364,183.398 57.364,182.897C57.364,182.627 57.253,182.385 57.039,182.17C56.869,182.014 56.501,181.909 55.927,181.861L55.526,181.8L55.178,181.661L55.159,181.516C55.159,181.444 55.192,181.341 55.254,181.21C55.387,181.115 55.493,181.059 55.596,181.045C55.794,181.023 56.679,181.045 58.267,181.112L59.567,181.112L60.375,181.129L61.72,181.112C61.814,181.123 61.967,181.16 62.174,181.204C62.274,181.31 62.327,181.402 62.327,181.488C62.327,181.627 62.268,181.744 62.162,181.831C62.057,181.914 61.814,181.992 61.441,182.053C60.489,182.226 59.768,182.479 59.291,182.825C58.977,183.064 58.695,183.412 58.448,183.861L57.033,186.974C56.699,187.921 56.415,188.631 56.2,189.104C56.111,189.399 55.936,189.795 55.694,190.279L54.903,192.103C55.045,192.44 55.279,192.978 55.604,193.716L57.579,198.305C57.66,198.508 57.932,199.082 58.367,200.009C58.807,200.948 59.172,201.811 59.464,202.599L59.751,201.686L59.795,201.596L60.965,198.561C61.372,197.639 61.781,196.668 62.19,195.632L63.663,191.939L65.883,185.654C66.117,184.936 66.303,184.234 66.437,183.56L66.498,183.254C66.534,183.12 66.554,183.014 66.554,182.953C66.554,182.777 66.468,182.61 66.289,182.468C66.111,182.324 65.479,182.12 64.387,181.861C64.287,181.82 64.184,181.758 64.081,181.669C64.042,181.499 64.025,181.363 64.025,181.265L64.042,181.112C64.582,181.084 64.922,181.079 65.058,181.079L66.543,181.112L68.208,181.09L69.653,181.09L70.23,181.129L70.244,181.327C70.244,181.421 70.241,181.558 70.207,181.744C69.297,182.101 68.734,182.351 68.509,182.505C68.289,182.658 68.116,182.825 67.996,183.006C67.877,183.176 67.648,183.66 67.32,184.448C67.281,184.532 66.882,185.676 66.117,187.879C65.95,188.216 65.774,188.656 65.59,189.199C65.543,189.355 65.432,189.628 65.267,190.02L64.955,190.783L64.747,191.335C63.906,193.654 62.976,196.083 61.959,198.611L59.887,204.334L59.063,206.506C58.865,206.564 58.712,206.589 58.615,206.589C58.523,206.589 58.397,206.587 58.233,206.575C58.072,206.105 57.704,205.203 57.142,203.883C55.682,200.533 54.368,197.756 53.201,195.543L52.981,195.924C52.341,197.163 51.567,198.806 50.667,200.853L49.205,203.883C48.604,205.183 48.116,206.066 47.74,206.575L46.838,206.631L43.719,199.021L41.149,192.983L38.885,187.247C38.735,186.877 38.598,186.528 38.476,186.194C38.398,185.952 38.311,185.704 38.233,185.442C38.114,185.044 37.755,184.142 37.167,182.73C36.941,182.36 36.568,182.126 36.059,182.023C35.555,181.92 35.181,181.817 34.936,181.716Z" style="fill:white;fill-rule:nonzero;"/>
                <path d="M73.799,204.943C74.08,204.84 74.361,204.768 74.656,204.748C76.594,204.626 77.708,204.386 77.981,204.049C78.26,203.709 78.402,202.064 78.402,199.115L78.385,197.09L78.385,194.968L78.31,192.64L78.343,191.273L78.329,189.769L78.329,188.001L78.293,187.213L78.329,186.208C78.343,185.977 78.343,185.709 78.343,185.403C78.343,184.598 78.31,183.74 78.229,182.844C78.179,182.665 78.109,182.487 78.02,182.323C77.552,182.081 76.792,181.914 75.748,181.836C74.701,181.747 74.105,181.657 73.968,181.552C73.868,181.479 73.804,181.287 73.799,180.986L75.375,180.986L80.368,181.114C81.646,181.114 83.353,181.075 85.483,180.986C85.483,181.215 85.478,181.432 85.455,181.635C85.199,181.705 84.79,181.777 84.205,181.858C83.033,181.992 82.317,182.128 82.061,182.256C81.896,182.323 81.782,182.426 81.707,182.582C81.59,182.813 81.507,183.239 81.484,183.863L81.387,186.325L81.47,194.826L81.47,198.182C81.443,199.237 81.431,199.958 81.431,200.34C81.431,201.766 81.465,202.679 81.534,203.072C81.604,203.47 81.721,203.748 81.896,203.924C82.069,204.091 82.356,204.227 82.754,204.33C83.333,204.47 83.796,204.545 84.13,204.556C84.843,204.584 85.297,204.692 85.483,204.868C85.528,205.032 85.542,205.18 85.542,205.288L85.542,205.447C84.394,205.483 83.542,205.5 82.994,205.5C82.676,205.5 82.114,205.483 81.298,205.453L78.675,205.483L74.2,205.467L73.835,205.467L73.799,204.943Z" style="fill:white;fill-rule:nonzero;"/>
                <path d="M90.038,205.629C90.052,205.443 90.096,205.278 90.191,205.125C91.16,204.858 92.107,204.68 93.029,204.591C93.647,204.54 94.034,204.401 94.209,204.176C94.335,204.003 94.404,203.399 94.438,202.34L94.56,197.292L94.546,193.878L94.56,189.408L94.56,188.222C94.577,185.535 94.56,183.861 94.53,183.198C94.51,183.07 94.46,182.892 94.374,182.664C94.039,182.508 93.764,182.41 93.544,182.352C93.321,182.299 92.327,182.121 90.559,181.798C90.547,181.661 90.542,181.553 90.542,181.489C90.542,181.408 90.547,181.308 90.559,181.174C90.801,181.174 91.202,181.185 91.748,181.21L94.666,181.299L96.354,181.338L96.852,181.319C96.913,181.319 97.103,181.335 97.403,181.355C98.164,181.355 98.598,181.349 98.712,181.338L100.244,181.174C101.28,181.174 102.004,181.193 102.433,181.227C102.416,181.441 102.377,181.672 102.297,181.923C102.155,181.957 101.481,181.993 100.28,182.034C99.069,182.082 98.375,182.151 98.197,182.254C97.899,182.422 97.751,182.937 97.751,183.797C97.751,184.006 97.735,184.427 97.715,185.05L97.715,186.206L97.729,189.773L97.729,190.985L97.774,197.367L97.715,202.803L97.729,203.995C97.729,204.384 97.796,204.624 97.927,204.716C98.247,204.727 99.183,204.738 100.743,204.749L102.043,204.749L105.357,204.635C106.226,204.616 106.849,204.526 107.217,204.376C107.585,204.226 108.208,203.8 109.072,203.084C109.595,202.633 110.005,202.146 110.297,201.669C110.361,201.564 110.47,201.413 110.623,201.204C110.868,200.879 111.191,200.216 111.603,199.213L112.232,199.213C112.157,199.673 112.074,200.107 111.987,200.514C111.625,202.313 111.369,203.814 111.238,205.005C111.21,205.259 111.182,205.498 111.166,205.716L104.037,205.498C97.913,205.498 94.29,205.54 93.14,205.607C92.789,205.618 92.416,205.629 92.015,205.629L90.038,205.629Z" style="fill:white;fill-rule:nonzero;"/>
                <path d="M115.417,205.629C115.428,205.443 115.481,205.278 115.57,205.125C116.536,204.858 117.491,204.68 118.407,204.591C119.02,204.54 119.415,204.401 119.591,204.176C119.708,204.003 119.783,203.399 119.816,202.34L119.947,197.292L119.922,193.878L119.947,189.408L119.947,188.222C119.958,185.535 119.947,183.861 119.903,183.198C119.897,183.07 119.844,182.892 119.755,182.664C119.421,182.508 119.143,182.41 118.923,182.352C118.7,182.299 117.703,182.121 115.937,181.798C115.926,181.661 115.921,181.553 115.921,181.489C115.921,181.408 115.926,181.308 115.937,181.174C116.18,181.174 116.578,181.185 117.124,181.21L120.045,181.299L121.732,181.338L122.225,181.319C122.295,181.319 122.476,181.335 122.782,181.355C123.54,181.355 123.977,181.349 124.091,181.338L125.623,181.174C126.658,181.174 127.382,181.193 127.811,181.227C127.797,181.441 127.753,181.672 127.678,181.923C127.536,181.957 126.856,181.993 125.656,182.034C124.447,182.082 123.754,182.151 123.576,182.254C123.278,182.422 123.125,182.937 123.125,183.797C123.125,184.006 123.114,184.427 123.088,185.05L123.088,186.206L123.111,189.773L123.111,190.985L123.147,197.367L123.088,202.803L123.111,203.995C123.111,204.384 123.175,204.624 123.306,204.716C123.623,204.727 124.562,204.738 126.115,204.749L127.421,204.749L130.741,204.635C131.604,204.616 132.222,204.526 132.59,204.376C132.963,204.226 133.587,203.8 134.453,203.084C134.974,202.633 135.383,202.146 135.678,201.669C135.737,201.564 135.848,201.413 136.004,201.204C136.246,200.879 136.572,200.216 136.981,199.213L137.611,199.213C137.536,199.673 137.449,200.107 137.366,200.514C137.004,202.313 136.75,203.814 136.614,205.005C136.589,205.259 136.558,205.498 136.539,205.716L129.418,205.498C123.295,205.498 119.663,205.54 118.522,205.607C118.162,205.618 117.789,205.629 117.397,205.629L115.417,205.629Z" style="fill:white;fill-rule:nonzero;"/>
                <path d="M141.361,204.943C141.645,204.84 141.926,204.768 142.216,204.748C144.159,204.626 145.271,204.386 145.546,204.049C145.827,203.709 145.97,202.064 145.97,199.115L145.947,197.09L145.947,194.968L145.872,192.64L145.908,191.273L145.889,189.769L145.889,188.001L145.855,187.213L145.889,186.208C145.905,185.977 145.908,185.709 145.908,185.403C145.908,184.598 145.872,183.74 145.794,182.844C145.747,182.665 145.677,182.487 145.591,182.323C145.12,182.081 144.357,181.914 143.316,181.836C142.258,181.747 141.67,181.657 141.533,181.552C141.43,181.479 141.372,181.287 141.361,180.986L142.943,180.986L147.93,181.114C149.208,181.114 150.921,181.075 153.048,180.986C153.048,181.215 153.04,181.432 153.018,181.635C152.773,181.705 152.358,181.777 151.776,181.858C150.6,181.992 149.879,182.128 149.623,182.256C149.456,182.323 149.345,182.426 149.269,182.582C149.147,182.813 149.072,183.239 149.049,183.863L148.952,186.325L149.03,194.826L149.03,198.182C149.002,199.237 148.991,199.958 148.991,200.34C148.991,201.766 149.024,202.679 149.1,203.072C149.166,203.47 149.289,203.748 149.456,203.924C149.631,204.091 149.918,204.227 150.319,204.33C150.898,204.47 151.363,204.545 151.698,204.556C152.405,204.584 152.859,204.692 153.048,204.868C153.09,205.032 153.107,205.18 153.107,205.288L153.107,205.447C151.954,205.483 151.105,205.5 150.556,205.5C150.238,205.5 149.676,205.483 148.86,205.453L146.234,205.483L141.762,205.467L141.397,205.467L141.361,204.943Z" style="fill:white;fill-rule:nonzero;"/>
                <path d="M166.154,193.51C167.507,193.583 169.061,193.622 170.796,193.622C171.785,193.622 172.662,193.588 173.405,193.533C173.28,193.034 173.132,192.569 172.962,192.143C172.133,189.946 171.673,188.726 171.584,188.501L169.838,184.12L169.646,183.775C169.571,183.928 169.295,184.577 168.808,185.727C168.006,187.707 167.432,189.238 167.081,190.338C166.911,190.834 166.739,191.324 166.563,191.814C166.385,192.296 166.276,192.641 166.235,192.836C166.19,193.029 166.126,193.229 166.037,193.432L166.154,193.51ZM157.053,204.858C157.232,204.744 157.388,204.685 157.53,204.685L157.967,204.685C158.056,204.685 158.212,204.682 158.429,204.666C159.415,204.579 159.994,204.488 160.172,204.401C160.626,204.159 161.002,203.738 161.325,203.14C161.98,201.839 162.718,200.004 163.536,197.618C163.932,196.487 164.174,195.799 164.28,195.554C164.586,194.791 164.895,193.992 165.188,193.145L166.964,188.119C167.243,187.331 167.908,185.524 168.969,182.697C169.234,181.982 169.554,181.029 169.933,179.826L170.562,179.787L171.239,179.812C171.785,180.896 172.275,182.068 172.703,183.324C172.923,183.984 173.302,184.978 173.831,186.29L176.755,194.179L178.309,198.456C179.128,200.884 179.662,202.38 179.91,202.934C180.169,203.491 180.406,203.858 180.618,204.039C180.682,204.084 180.918,204.17 181.339,204.273C181.748,204.376 182.038,204.443 182.205,204.501C182.79,204.677 183.199,204.822 183.43,204.953C183.477,205.103 183.5,205.22 183.5,205.303C183.5,205.365 183.483,205.471 183.444,205.607C183.032,205.624 182.745,205.629 182.581,205.629C181.932,205.629 180.796,205.587 179.153,205.498L177.243,205.459L174.934,205.484C174.781,205.484 174.628,205.479 174.466,205.465C174.305,205.448 174.174,205.443 174.06,205.443L173.639,205.443C173.492,205.432 173.369,205.393 173.258,205.329C173.258,205.15 173.288,204.986 173.35,204.819C173.492,204.744 173.634,204.696 173.759,204.685L175.714,204.552C176.229,204.527 176.613,204.454 176.886,204.334C176.964,204.106 176.992,203.936 176.992,203.816C176.992,203.591 176.833,202.989 176.505,202.02C176.271,201.383 176.067,200.764 175.892,200.185C175.725,199.612 175.034,197.707 173.851,194.474C173.33,194.382 172.871,194.343 172.475,194.343L168.401,194.376L167.204,194.36C166.772,194.36 166.293,194.387 165.775,194.454C165.611,194.836 165.502,195.111 165.455,195.279L163.792,200.544C163.077,202.555 162.718,203.658 162.718,203.858C162.718,203.978 162.773,204.17 162.893,204.432C163.158,204.515 163.514,204.579 163.965,204.652L166.569,204.875C166.711,204.994 166.78,205.095 166.78,205.189C166.78,205.253 166.761,205.354 166.722,205.484C166.148,205.498 165.706,205.498 165.402,205.498C164.38,205.498 163.197,205.465 161.835,205.376C161.211,205.354 160.768,205.342 160.498,205.342C160.228,205.342 159.766,205.354 159.1,205.376C158.666,205.42 158.348,205.443 158.162,205.443C157.855,205.443 157.457,205.42 156.97,205.376L156.97,205.253C156.97,205.159 156.998,205.022 157.053,204.858Z" style="fill:white;fill-rule:nonzero;"/>
                <path d="M187.008,205.095C187.406,204.822 188.113,204.63 189.147,204.515C189.949,204.474 190.422,204.41 190.572,204.307C190.675,204.226 190.753,204.131 190.806,204.014C190.998,203.544 191.132,202.257 191.224,200.149C191.335,197.439 191.511,193.831 191.753,189.33C191.948,185.897 192.045,183.758 192.045,182.898L192.045,182.408C191.132,182.241 189.69,182.057 187.701,181.862C187.576,181.678 187.515,181.536 187.515,181.436C187.515,181.372 187.557,181.258 187.646,181.099C187.868,181.024 188.022,180.985 188.141,180.985C188.239,180.985 188.459,180.999 188.807,181.032C189.425,181.088 190.283,181.116 191.369,181.116C191.725,181.116 192.335,181.088 193.193,181.04C193.808,181.004 194.148,180.985 194.22,180.985C194.424,180.985 194.658,181.015 194.928,181.077C195.033,181.199 195.106,181.322 195.162,181.436L195.991,183.24L201.424,195.206L203.699,200.171C205.482,196.685 206.863,193.585 207.846,190.873C207.907,190.67 207.985,190.489 208.077,190.325C208.191,190.121 208.297,189.868 208.4,189.603C208.503,189.336 208.915,188.322 209.645,186.56C209.945,185.852 210.177,185.242 210.355,184.736C211.09,182.714 211.513,181.553 211.641,181.258C211.884,181.118 212.095,181.043 212.273,181.043C212.477,181.043 212.739,181.071 213.056,181.116C213.769,181.185 214.922,181.213 216.529,181.213C217.517,181.213 218.336,181.199 218.968,181.174C218.996,181.338 219.007,181.45 219.007,181.517C219.007,181.622 218.99,181.759 218.948,181.926C218.542,182.146 218.052,182.266 217.484,182.291C216.356,182.352 215.643,182.444 215.334,182.558C215.036,182.669 214.835,182.811 214.755,182.984C214.677,183.168 214.602,183.747 214.537,184.73L214.557,185.604L214.537,186.518C214.537,188.403 214.588,191.592 214.688,196.058L214.671,199.776L214.688,202.157C214.688,203.092 214.732,203.649 214.819,203.814C214.913,203.992 215.172,204.145 215.59,204.298C216.272,204.532 217.397,204.763 218.943,205.006C219.035,205.067 219.079,205.15 219.079,205.253C219.079,205.368 219.074,205.498 219.063,205.635L218.183,205.635C217.431,205.635 216.623,205.618 215.746,205.574C214.869,205.526 214.401,205.498 214.34,205.498C211.733,205.498 210.01,205.526 209.157,205.576C208.637,205.615 208.303,205.629 208.161,205.629C208.083,205.629 207.985,205.604 207.879,205.543L207.879,205.278C207.879,205.15 207.901,205.017 207.941,204.875C208.355,204.696 208.932,204.579 209.664,204.515C210.458,204.298 211.043,204.073 211.419,203.833C211.533,203.349 211.586,202.38 211.586,200.89L211.547,197.058C211.547,196.637 211.566,195.861 211.605,194.716C211.644,193.58 211.669,191.725 211.669,189.161C211.669,187.122 211.616,185.574 211.524,184.527C211.302,184.967 210.873,185.939 210.227,187.431L209.937,188.155L209.901,188.269L207.024,194.955L205.991,197.534L204.652,200.667C204.073,202.104 203.577,203.382 203.162,204.488C202.984,205.006 202.831,205.398 202.714,205.691L202.405,205.629C200.951,201.441 199.224,197.139 197.222,192.719C195.214,188.311 193.811,185.401 193.001,183.992C192.889,184.541 192.778,186.122 192.647,188.757C192.477,191.965 192.394,195.487 192.394,199.347C192.394,200.558 192.483,201.926 192.664,203.44C192.711,203.878 192.898,204.198 193.221,204.41C193.538,204.618 194.365,204.733 195.696,204.763C196.211,204.763 196.699,204.805 197.161,204.875C197.253,205.07 197.295,205.209 197.295,205.301C197.295,205.368 197.261,205.479 197.197,205.629L191.255,205.498C190.815,205.498 190.146,205.526 189.23,205.574C188.715,205.604 187.985,205.618 187.03,205.629L187.008,205.095Z" style="fill:white;fill-rule:nonzero;"/>
                <path d="M237.565,181.927C237.668,182.768 237.718,183.249 237.718,183.383L237.64,185.087C237.623,185.809 237.582,186.274 237.548,186.482C237.426,186.533 237.328,186.558 237.245,186.558L237.061,186.516C236.654,184.728 235.955,183.414 234.986,182.598C234.009,181.774 232.82,181.364 231.411,181.364C229.963,181.364 228.768,181.774 227.835,182.592C226.905,183.408 226.44,184.361 226.44,185.444C226.44,186.274 226.763,187.034 227.412,187.722C228.064,188.421 229.734,189.457 232.419,190.843C234.452,191.91 235.914,192.768 236.796,193.441C237.674,194.11 238.333,194.881 238.785,195.758C239.225,196.641 239.453,197.613 239.453,198.693C239.453,200.055 239.099,201.336 238.389,202.534C237.685,203.723 236.718,204.625 235.532,205.229C234.332,205.831 232.742,206.137 230.762,206.137C229.044,206.137 227.387,205.858 225.808,205.307C224.881,204.976 224.307,204.706 224.104,204.502C223.898,204.299 223.8,204.073 223.8,203.848C223.8,203.711 223.806,203.536 223.834,203.319C224.006,201.829 224.101,200.595 224.109,199.643C224.137,199.044 224.179,198.699 224.24,198.596C224.288,198.507 224.385,198.459 224.521,198.459C224.636,198.459 224.719,198.507 224.794,198.59C224.858,198.668 224.908,198.83 224.928,199.05C225.07,200.609 225.802,201.993 227.122,203.227C228.423,204.449 229.901,205.062 231.553,205.062C232.561,205.062 233.496,204.859 234.349,204.433C235.195,204.018 235.866,203.408 236.345,202.614C236.819,201.823 237.061,201.049 237.061,200.295C237.061,199.27 236.699,198.329 235.978,197.471C235.243,196.624 233.781,195.625 231.595,194.48C229.392,193.344 227.966,192.514 227.301,191.996C226.234,191.141 225.426,190.236 224.892,189.278C224.499,188.54 224.301,187.68 224.301,186.705C224.301,184.929 225.006,183.433 226.409,182.202C227.813,180.969 229.701,180.359 232.065,180.359C233.366,180.359 234.493,180.507 235.437,180.802C236.123,181.03 236.835,181.406 237.565,181.927Z" style="fill:white;fill-rule:nonzero;"/>
                <path d="M35.153,233.159C35.159,233.092 35.176,233.017 35.212,232.961C35.591,232.858 35.966,232.786 36.328,232.75C36.568,232.733 36.724,232.674 36.788,232.588C36.844,232.527 36.863,232.29 36.874,231.886L36.93,229.951L36.919,228.634L36.93,226.918L36.93,226.467C36.93,225.434 36.93,224.785 36.913,224.537C36.908,224.487 36.894,224.418 36.852,224.329C36.724,224.273 36.621,224.231 36.535,224.209C36.448,224.192 36.064,224.117 35.379,223.997C35.376,223.947 35.368,223.903 35.368,223.877C35.368,223.85 35.376,223.811 35.379,223.766C35.474,223.766 35.624,223.766 35.836,223.777L36.949,223.827L37.601,223.841L38.506,223.841L39.096,223.791C39.497,223.791 39.773,223.797 39.937,223.816C39.932,223.903 39.915,223.994 39.882,224.089C39.829,224.1 39.575,224.117 39.119,224.128C38.665,224.145 38.397,224.178 38.331,224.22C38.216,224.284 38.166,224.476 38.166,224.805C38.166,224.885 38.155,225.044 38.15,225.286L38.15,225.721L38.155,227.091L38.155,227.55L38.169,229.981L38.15,232.056L38.155,232.516C38.155,232.66 38.18,232.75 38.225,232.786C38.35,232.786 38.712,232.797 39.314,232.8L39.812,232.8L41.088,232.758C41.422,232.75 41.653,232.716 41.8,232.658C41.94,232.605 42.176,232.435 42.511,232.162C42.711,231.978 42.867,231.8 42.981,231.622C43.006,231.58 43.045,231.519 43.112,231.443C43.198,231.313 43.321,231.056 43.485,230.678L43.719,230.678C43.683,230.861 43.658,231.023 43.624,231.176C43.485,231.87 43.385,232.449 43.338,232.911C43.324,233.003 43.315,233.098 43.304,233.178L40.558,233.1C38.197,233.1 36.796,233.109 36.351,233.148C36.214,233.153 36.069,233.159 35.916,233.159L35.153,233.159Z" style="fill:white;fill-rule:nonzero;"/>
                <path d="M50.073,231.92C50.109,231.288 50.128,230.856 50.128,230.6C50.128,230.469 50.12,230.288 50.103,230.068C49.775,230.182 49.424,230.358 49.048,230.6C48.675,230.84 48.382,231.121 48.16,231.433C48.004,231.658 47.926,231.87 47.926,232.07C47.926,232.263 47.992,232.421 48.123,232.544C48.251,232.675 48.419,232.739 48.622,232.739C48.769,232.739 48.956,232.68 49.179,232.575C49.463,232.435 49.764,232.21 50.073,231.92ZM52.206,232.123C52.225,232.193 52.242,232.232 52.242,232.263C52.242,232.335 52.183,232.463 52.064,232.658C51.919,232.9 51.749,233.081 51.56,233.193C51.44,233.262 51.287,233.31 51.078,233.31C50.727,233.31 50.463,233.193 50.287,232.981C50.178,232.853 50.103,232.625 50.059,232.293L49.237,232.875C48.945,233.04 48.728,233.148 48.577,233.193C48.332,233.254 48.04,233.29 47.695,233.29C47.444,233.29 47.249,233.215 47.104,233.07C46.957,232.914 46.887,232.722 46.887,232.485C46.887,232.148 47.099,231.742 47.508,231.274C47.926,230.803 48.485,230.419 49.204,230.124C49.702,229.912 50.009,229.773 50.12,229.72C50.131,229.556 50.142,229.38 50.142,229.18C50.142,228.553 50.048,228.125 49.872,227.902C49.697,227.679 49.449,227.573 49.118,227.573C48.775,227.573 48.458,227.701 48.165,227.971C47.981,228.139 47.839,228.453 47.747,228.927C47.714,229.049 47.667,229.191 47.58,229.339C47.369,229.475 47.202,229.542 47.076,229.542C46.968,229.542 46.87,229.514 46.781,229.447C46.734,229.417 46.712,229.38 46.712,229.33C46.712,229.205 46.848,228.913 47.118,228.464C47.394,228.01 47.736,227.673 48.143,227.451C48.563,227.222 48.923,227.111 49.232,227.111C49.655,227.111 49.97,227.15 50.167,227.222C50.379,227.3 50.557,227.431 50.716,227.623C50.872,227.818 50.969,228.027 51.003,228.255C51.025,228.361 51.036,228.743 51.036,229.411L51.014,230.583L51.019,231.436C51.019,231.55 51.014,231.644 51.014,231.725C51.003,231.864 51.003,231.973 51.003,232.048C51.003,232.207 51.056,232.332 51.145,232.435C51.237,232.527 51.345,232.577 51.476,232.577C51.657,232.577 51.816,232.485 51.952,232.293L52.039,232.173C52.058,232.162 52.114,232.14 52.206,232.123Z" style="fill:white;fill-rule:nonzero;"/>
                <path d="M54.525,227.364L57.354,227.37C57.401,227.37 57.443,227.384 57.454,227.4C57.482,227.42 57.488,227.45 57.488,227.489C57.488,227.573 57.449,227.654 57.376,227.696C57.031,227.718 56.828,227.762 56.736,227.818C56.655,227.879 56.616,227.96 56.616,228.063C56.616,228.113 56.622,228.158 56.627,228.205C56.644,228.264 56.719,228.436 56.842,228.72C57.009,229.11 57.304,229.734 57.724,230.603L58.599,232.374C59.095,231.494 59.509,230.684 59.816,229.932L59.365,228.77C59.32,228.676 59.253,228.511 59.178,228.303C59.1,228.091 59.047,227.971 58.997,227.924C58.961,227.888 58.81,227.84 58.554,227.765C58.293,227.696 58.145,227.634 58.092,227.598L58.089,227.537C58.089,227.512 58.1,227.462 58.134,227.4C58.251,227.37 58.34,227.35 58.409,227.35L58.824,227.364L59.735,227.364L60.013,227.35L60.907,227.37C60.98,227.37 61.049,227.37 61.088,227.364L61.214,227.364C61.247,227.364 61.289,227.364 61.339,227.37L61.328,227.609C61.253,227.654 61.133,227.687 60.957,227.712C60.64,227.746 60.395,227.799 60.225,227.888C60.167,227.949 60.142,228.002 60.142,228.041C60.142,228.152 60.175,228.286 60.228,228.445C60.25,228.495 60.303,228.648 60.387,228.899L61.175,230.968C61.409,231.58 61.584,232.017 61.707,232.262C61.918,231.884 62.208,231.204 62.578,230.221C62.709,229.882 62.887,229.478 63.11,229.002C63.249,228.701 63.322,228.445 63.322,228.23C63.322,228.113 63.283,228.01 63.196,227.938C63.118,227.863 62.921,227.79 62.612,227.723C62.436,227.684 62.303,227.648 62.211,227.609C62.186,227.567 62.174,227.537 62.174,227.515C62.174,227.47 62.197,227.42 62.252,227.37L62.361,227.37L62.96,227.364C62.985,227.364 63.099,227.37 63.299,227.375C63.5,227.384 63.695,227.384 63.89,227.384C64.037,227.384 64.204,227.384 64.394,227.37L64.764,227.37C64.795,227.384 64.817,227.392 64.828,227.409C64.839,227.42 64.842,227.45 64.842,227.478C64.842,227.531 64.834,227.598 64.823,227.659C64.578,227.687 64.394,227.746 64.254,227.826C64.118,227.907 63.934,228.124 63.695,228.489L62.38,231.647C62.252,231.934 62.044,232.385 61.743,232.992C61.673,233.115 61.634,233.218 61.595,233.304C61.565,233.379 61.531,233.429 61.503,233.451C61.475,233.471 61.436,233.493 61.384,233.493C61.35,233.493 61.306,233.479 61.247,233.457C61.111,233.193 60.815,232.438 60.35,231.218C60.214,230.895 60.094,230.625 59.98,230.399C59.189,232.059 58.668,233.081 58.423,233.457C58.343,233.468 58.29,233.471 58.251,233.471C58.212,233.471 58.153,233.468 58.089,233.457L56.705,230.569L55.447,228.102C55.36,227.957 55.285,227.868 55.246,227.832C55.154,227.773 55.012,227.735 54.801,227.704C54.681,227.684 54.589,227.673 54.525,227.659C54.519,227.579 54.519,227.523 54.519,227.478C54.519,227.453 54.519,227.412 54.525,227.364Z" style="fill:white;fill-rule:nonzero;"/>
                <path d="M67.319,227.346C67.431,227.335 67.52,227.33 67.592,227.33L67.951,227.33L68.425,227.313L69.048,227.335L69.558,227.324C69.828,227.324 70.07,227.335 70.285,227.372C70.307,227.416 70.321,227.455 70.321,227.483L70.307,227.541C70.207,227.586 70.045,227.625 69.834,227.645C69.53,227.672 69.307,227.722 69.177,227.814L69.163,227.887C69.163,227.942 69.185,228.012 69.221,228.11C69.249,228.171 69.274,228.263 69.313,228.382C69.427,228.744 69.655,229.443 70.012,230.493C70.268,231.234 70.508,231.888 70.728,232.429C70.861,232.133 71.014,231.746 71.193,231.287L71.808,229.541C71.956,229.173 72.059,228.792 72.137,228.405C72.162,228.243 72.178,228.123 72.178,228.04C72.178,227.959 72.145,227.892 72.081,227.834C72.022,227.764 71.892,227.711 71.702,227.672C71.36,227.572 71.165,227.525 71.142,227.505C71.106,227.477 71.095,227.436 71.09,227.363C71.117,227.335 71.151,227.324 71.193,227.302L71.649,227.302L72.137,227.313L72.866,227.302L73.331,227.313L73.451,227.302C73.49,227.302 73.549,227.31 73.624,227.324C73.674,227.346 73.702,227.394 73.702,227.45C73.702,227.503 73.674,227.547 73.624,227.586L73.484,227.614C73.2,227.647 72.98,227.722 72.833,227.834C72.749,227.887 72.677,228.007 72.621,228.193C72.602,228.257 72.571,228.343 72.527,228.452C72.499,228.513 72.465,228.605 72.423,228.744C72.373,228.881 72.315,229.042 72.237,229.229L72.145,229.441L72.139,229.471L70.895,232.757L69.978,235.236C69.923,235.358 69.848,235.503 69.772,235.695C69.589,236.038 69.48,236.23 69.449,236.266C69.296,236.447 69.174,236.572 69.065,236.65L68.689,236.803C68.614,236.828 68.539,236.84 68.455,236.84C68.235,236.84 68.077,236.792 67.968,236.689C67.871,236.603 67.818,236.464 67.818,236.302C67.818,236.146 67.887,236.004 68.046,235.868C68.093,235.857 68.143,235.843 68.196,235.82L68.285,235.793C68.723,235.868 68.995,235.912 69.096,235.912C69.202,235.857 69.28,235.793 69.33,235.717C69.569,235.366 69.772,234.96 69.948,234.52C70.115,234.08 70.201,233.782 70.201,233.632C70.201,233.462 70.137,233.217 70.012,232.908L69.202,230.752C69.087,230.468 68.75,229.566 68.196,228.012C68.166,227.929 68.116,227.859 68.065,227.814L67.564,227.645L67.411,227.614C67.327,227.572 67.286,227.525 67.286,227.455L67.319,227.346Z" style="fill:white;fill-rule:nonzero;"/>
                <path d="M77.754,229.03L78.105,229.03C78.355,229.03 79.101,228.988 80.338,228.921C80.533,228.904 80.658,228.885 80.703,228.854C80.786,228.76 80.828,228.679 80.828,228.601C80.828,228.448 80.786,228.269 80.683,228.074C80.586,227.88 80.433,227.721 80.235,227.618C80.026,227.509 79.789,227.456 79.519,227.456C78.957,227.456 78.503,227.671 78.157,228.102C77.89,228.436 77.754,228.743 77.754,229.03ZM81.856,229.283L78.912,229.316L78.355,229.303C78.127,229.303 77.901,229.316 77.662,229.328C77.612,229.47 77.595,229.573 77.595,229.623L77.601,229.692L77.601,229.768L77.595,230.127C77.595,230.419 77.69,230.792 77.879,231.213C78.066,231.644 78.333,231.973 78.687,232.207C79.037,232.43 79.469,232.552 79.995,232.563C80.277,232.552 80.494,232.516 80.661,232.46C80.822,232.407 81.062,232.282 81.365,232.09L81.895,231.653L81.942,231.948C81.942,231.981 81.936,232.015 81.936,232.057C81.714,232.335 81.435,232.577 81.093,232.786C80.758,233.001 80.413,233.151 80.068,233.251C79.898,233.293 79.628,233.318 79.241,233.318C78.895,233.318 78.547,233.251 78.213,233.106C77.715,232.895 77.319,232.544 77.038,232.07C76.751,231.597 76.604,231.015 76.604,230.333C76.604,230.124 76.643,229.851 76.729,229.514C76.807,229.172 76.952,228.815 77.163,228.436C77.305,228.175 77.481,227.958 77.69,227.804C77.979,227.568 78.235,227.401 78.458,227.306C78.776,227.178 79.152,227.111 79.566,227.111C80.02,227.111 80.396,227.194 80.683,227.362C81.079,227.579 81.371,227.866 81.56,228.214C81.755,228.559 81.856,228.885 81.856,229.172L81.856,229.283Z" style="fill:white;fill-rule:nonzero;"/>
                <path d="M85.142,233.192L85.108,233.098C85.108,233.067 85.13,233.009 85.175,232.942L85.612,232.853L86.219,232.744C86.266,232.719 86.308,232.683 86.317,232.636C86.356,232.569 86.364,232.385 86.364,232.073C86.364,230.391 86.361,229.422 86.333,229.171C86.317,228.907 86.272,228.743 86.211,228.673C86.138,228.601 85.966,228.55 85.679,228.506C85.515,228.486 85.381,228.45 85.281,228.411L85.309,228.186C85.829,227.974 86.175,227.799 86.356,227.645C86.598,227.425 86.804,227.136 86.977,226.782L87.216,226.79C87.249,227.033 87.261,227.573 87.261,228.403L87.255,228.534C87.255,228.559 87.261,228.603 87.272,228.673C87.456,228.333 87.687,228.027 87.971,227.743L88.135,227.573C88.202,227.492 88.274,227.431 88.336,227.386C88.678,227.178 88.931,227.077 89.107,227.077C89.319,227.077 89.494,227.152 89.636,227.294C89.77,227.439 89.839,227.618 89.839,227.824C89.839,227.999 89.789,228.119 89.692,228.213C89.555,228.336 89.41,228.397 89.238,228.397C89.154,228.397 89.004,228.358 88.773,228.275C88.542,228.186 88.394,228.149 88.322,228.149C88.18,228.149 88.085,228.161 88.029,228.213C87.893,228.322 87.731,228.542 87.531,228.882C87.38,229.127 87.3,229.361 87.3,229.572L87.341,230.8L87.358,232.271C87.369,232.441 87.392,232.552 87.411,232.599C87.431,232.63 87.483,232.675 87.559,232.725C88.09,232.766 88.402,232.8 88.505,232.817C88.569,232.828 88.62,232.836 88.656,232.836C88.867,232.839 89.015,232.875 89.096,232.922C89.143,232.953 89.165,232.989 89.165,233.028C89.165,233.056 89.143,233.101 89.107,233.148L88.291,233.131L87.979,233.123L87.531,233.131L86.779,233.131L86.375,233.159L85.142,233.192Z" style="fill:white;fill-rule:nonzero;"/>
                <path d="M93.437,231.274C93.618,231.742 93.752,232.043 93.841,232.185C94.033,232.46 94.253,232.68 94.512,232.836C94.771,232.992 95.055,233.067 95.359,233.067C95.64,233.067 95.918,232.953 96.186,232.708C96.389,232.527 96.481,232.313 96.481,232.07C96.481,231.753 96.372,231.458 96.138,231.191C95.913,230.92 95.476,230.667 94.832,230.419C94.195,230.177 93.766,229.924 93.543,229.642C93.326,229.372 93.212,229.063 93.212,228.707C93.212,228.372 93.303,228.08 93.484,227.821C93.663,227.568 93.916,227.375 94.231,227.242C94.545,227.105 94.838,227.05 95.111,227.05C95.453,227.05 95.76,227.078 96.038,227.128C96.317,227.178 96.556,227.261 96.751,227.37C96.787,227.623 96.821,227.991 96.846,228.478L96.86,228.712C96.798,228.712 96.74,228.721 96.698,228.721L96.587,228.721C96.447,228.317 96.225,227.991 95.927,227.751C95.631,227.512 95.339,227.392 95.038,227.392C94.751,227.392 94.512,227.484 94.334,227.66C94.156,227.841 94.064,228.08 94.064,228.372C94.064,228.592 94.133,228.79 94.281,228.96C94.426,229.135 94.768,229.33 95.308,229.542C95.849,229.756 96.236,229.965 96.492,230.155C96.734,230.341 96.918,230.57 97.032,230.845C97.146,231.113 97.21,231.377 97.21,231.622C97.21,231.962 97.096,232.277 96.868,232.577C96.651,232.872 96.372,233.076 96.038,233.201C95.704,233.315 95.403,233.382 95.144,233.382C94.52,233.382 93.952,233.268 93.423,233.037C93.376,232.995 93.354,232.923 93.348,232.814C93.348,232.772 93.345,232.7 93.331,232.605C93.251,231.934 93.212,231.547 93.212,231.424C93.212,231.36 93.228,231.324 93.251,231.305C93.276,231.288 93.34,231.274 93.437,231.274Z" style="fill:white;fill-rule:nonzero;"/>
                <path d="M111.182,227.431C111.458,227.316 111.675,227.124 111.825,226.838C111.981,226.559 112.065,226.267 112.065,225.949C112.065,225.49 111.951,225.133 111.739,224.888C111.528,224.638 111.252,224.518 110.915,224.518C110.62,224.518 110.383,224.601 110.191,224.785C110.004,224.963 109.915,225.175 109.915,225.423C109.915,225.685 110.01,225.966 110.205,226.275C110.483,226.701 110.812,227.094 111.182,227.431ZM113.051,231.468L112.995,231.391L112.973,231.354L111.333,229.402C111.127,229.149 110.759,228.731 110.21,228.135C109.601,228.364 109.144,228.689 108.824,229.11C108.509,229.544 108.353,229.998 108.353,230.469C108.353,230.605 108.398,230.792 108.478,231.031C108.559,231.271 108.698,231.499 108.913,231.733C109.124,231.959 109.394,232.134 109.715,232.262C110.035,232.387 110.408,232.457 110.817,232.457C111.302,232.457 111.734,232.362 112.123,232.176C112.513,231.981 112.822,231.747 113.051,231.468ZM109.999,227.896C109.539,227.303 109.241,226.877 109.119,226.595C108.988,226.32 108.924,226.055 108.924,225.804C108.924,225.373 109.099,224.994 109.458,224.674C109.818,224.348 110.325,224.189 110.987,224.189C111.597,224.189 112.073,224.348 112.41,224.654C112.747,224.966 112.914,225.362 112.914,225.827C112.914,226.267 112.8,226.634 112.575,226.924C112.346,227.222 111.976,227.478 111.452,227.712C111.625,227.954 111.898,228.288 112.277,228.709C112.405,228.856 112.502,228.968 112.563,229.049L113.819,230.614C114.231,230.146 114.541,229.714 114.733,229.333C114.939,228.948 115.033,228.645 115.033,228.441C115.033,228.3 114.989,228.18 114.9,228.077C114.811,227.971 114.655,227.887 114.438,227.834C114.421,227.793 114.404,227.745 114.404,227.72L114.421,227.665L115.265,227.578C115.432,227.55 115.677,227.528 115.991,227.525C116.306,227.509 116.738,227.484 117.297,227.442L117.314,227.528C117.314,227.567 117.3,227.606 117.286,227.665C116.944,227.809 116.654,227.976 116.404,228.166C116.161,228.358 115.796,228.737 115.306,229.316C114.816,229.884 114.385,230.413 114.042,230.909C114.66,231.647 115.095,232.112 115.348,232.276C115.602,232.451 115.866,232.532 116.161,232.532C116.476,232.532 116.757,232.435 116.994,232.243C117.15,232.12 117.258,232.062 117.331,232.062C117.359,232.062 117.395,232.073 117.456,232.089C117.348,232.552 117.25,232.811 117.15,232.883C116.785,233.198 116.37,233.351 115.927,233.351C115.654,233.351 115.401,233.304 115.156,233.223C114.925,233.142 114.677,233.003 114.426,232.825C114.279,232.716 114.031,232.49 113.683,232.156C113.46,231.936 113.318,231.8 113.248,231.741C112.861,232.128 112.569,232.404 112.374,232.543C112.037,232.797 111.675,232.992 111.269,233.142C110.868,233.279 110.414,233.351 109.896,233.351C109.269,233.351 108.743,233.215 108.322,232.953C107.905,232.685 107.601,232.34 107.412,231.917C107.22,231.499 107.128,231.101 107.128,230.714C107.128,230.419 107.183,230.14 107.292,229.867C107.401,229.589 107.54,229.355 107.715,229.171C107.891,228.973 108.125,228.773 108.431,228.561C108.534,228.503 108.782,228.364 109.183,228.163C109.431,228.041 109.709,227.951 109.999,227.896Z" style="fill:white;fill-rule:nonzero;"/>
                <path d="M126.724,224.125L126.71,223.777C127.47,223.777 128.022,223.761 128.376,223.722C128.511,223.708 128.608,223.702 128.662,223.702C128.707,223.702 128.768,223.702 128.856,223.719C129.063,223.886 129.253,224.078 129.431,224.304C129.466,224.343 129.514,224.396 129.562,224.454L131.105,226.158L131.322,226.426C131.636,226.796 131.923,227.105 132.179,227.37C132.433,227.631 132.937,228.172 133.675,228.99L135.424,230.948C135.593,231.137 135.813,231.377 136.084,231.661L136.089,231.541C136.061,230.862 136.045,230.497 136.045,230.455L136.072,230.012L136.061,229.324L136.061,229.004C136.061,228.807 136.045,228.183 136.02,227.141C136.02,226.999 136.006,226.726 135.969,226.342C135.947,225.936 135.93,225.596 135.93,225.295C135.93,224.752 135.9,224.437 135.833,224.359C135.794,224.29 135.58,224.226 135.201,224.15C135.112,224.148 134.97,224.131 134.783,224.112C134.558,224.098 134.427,224.078 134.388,224.067C134.349,224.061 134.307,224.017 134.271,223.95C134.274,223.866 134.299,223.794 134.326,223.727C134.471,223.694 134.599,223.672 134.722,223.672C134.867,223.672 135.034,223.685 135.245,223.722C135.443,223.761 135.63,223.777 135.794,223.777C136.02,223.777 136.373,223.766 136.847,223.738C137.119,223.722 137.306,223.719 137.412,223.719L137.534,223.719L137.521,223.936C137.448,223.969 137.339,223.995 137.197,223.997C137.067,224.003 136.939,224.028 136.816,224.064C136.641,224.112 136.537,224.162 136.501,224.195C136.382,224.329 136.32,224.46 136.32,224.591L136.407,226.916L136.462,227.977L136.46,228.286L136.501,229.762C136.529,230.77 136.543,231.65 136.543,232.396C136.543,232.558 136.532,232.911 136.515,233.443L136.123,233.471C135.955,233.282 135.368,232.661 134.363,231.622C134.129,231.382 133.964,231.218 133.892,231.115L133.26,230.383C133.018,230.115 132.856,229.943 132.786,229.87C132.709,229.803 132.656,229.742 132.622,229.712C132.093,229.105 131.405,228.344 130.552,227.425C130.325,227.18 129.985,226.802 129.545,226.278C129.261,225.949 129.091,225.755 129.013,225.679C128.944,225.601 128.845,225.523 128.724,225.432L128.696,225.679C128.696,226.629 128.724,227.957 128.765,229.639L128.821,232.073C128.821,232.276 128.835,232.485 128.856,232.666L129.11,232.73C129.576,232.764 130.037,232.836 130.485,232.922C130.52,232.956 130.548,232.975 130.575,232.992L130.563,233.268C130.485,233.29 130.427,233.309 130.375,233.309C130.325,233.309 130.255,233.304 130.179,233.29C129.695,233.259 129.104,233.24 128.412,233.24C127.927,233.24 127.498,233.251 127.125,233.282L127.025,233.29C126.983,233.29 126.919,233.282 126.83,233.268L126.824,233.056L127.019,232.97L127.362,232.922C127.674,232.872 127.899,232.833 128.039,232.772C128.136,232.736 128.205,232.683 128.272,232.622C128.32,232.276 128.348,231.786 128.348,231.126C128.348,230.825 128.341,230.263 128.325,229.458L128.325,228.447L128.309,226.353C128.302,225.415 128.272,224.866 128.216,224.705C128.183,224.613 128.128,224.535 128.033,224.462C127.849,224.329 127.607,224.245 127.303,224.209C127.005,224.178 126.808,224.148 126.724,224.125Z" style="fill:white;fill-rule:nonzero;"/>
                <path d="M144.431,233.053C144.799,233.053 145.155,232.956 145.503,232.75C145.851,232.549 146.127,232.226 146.336,231.786C146.536,231.341 146.637,230.826 146.637,230.241C146.637,229.857 146.559,229.417 146.403,228.913C146.238,228.403 145.996,228.022 145.665,227.771C145.342,227.523 144.955,227.392 144.506,227.392C144.181,227.392 143.849,227.462 143.521,227.623C143.178,227.771 142.897,228.061 142.666,228.501C142.437,228.932 142.318,229.542 142.318,230.333C142.318,231.232 142.521,231.903 142.925,232.366C143.334,232.82 143.824,233.053 144.431,233.053ZM141.184,230.177C141.184,229.854 141.254,229.495 141.39,229.108C141.532,228.732 141.75,228.392 142.031,228.091C142.312,227.793 142.616,227.568 142.93,227.42C143.379,227.217 143.922,227.105 144.559,227.105C145.47,227.105 146.238,227.426 146.851,228.052C147.464,228.682 147.767,229.431 147.767,230.316C147.767,231.101 147.447,231.8 146.804,232.407C146.163,233.029 145.353,233.335 144.373,233.335C143.766,233.335 143.189,233.171 142.649,232.859C142.251,232.619 141.906,232.263 141.619,231.789C141.332,231.319 141.184,230.79 141.184,230.177Z" style="fill:white;fill-rule:nonzero;"/>
                <path d="M152.941,225.869L153.164,225.88L153.192,226.573L153.172,227.476C153.264,227.481 153.331,227.481 153.353,227.481C153.482,227.481 153.727,227.476 154.094,227.453C154.328,227.436 154.554,227.431 154.765,227.431C154.868,227.431 155.016,227.436 155.216,227.436C155.228,227.537 155.233,227.615 155.233,227.673C155.233,227.734 155.216,227.837 155.183,227.971L155.06,227.971L153.899,228.007L153.331,228.021L153.195,228.032C153.156,228.158 153.136,228.303 153.136,228.464L153.156,229.57L153.139,231.505C153.139,232.023 153.211,232.365 153.348,232.527C153.476,232.7 153.665,232.783 153.927,232.783C154.058,232.783 154.3,232.744 154.659,232.666C154.771,232.633 154.918,232.558 155.108,232.421L155.166,232.421C155.216,232.421 155.247,232.432 155.275,232.46C155.303,232.491 155.319,232.527 155.319,232.569L155.308,232.624C155.102,232.853 154.857,233.017 154.581,233.126C154.311,233.229 153.949,233.29 153.498,233.29C153.178,233.29 152.919,233.212 152.707,233.07C152.496,232.914 152.368,232.744 152.306,232.541C152.248,232.335 152.22,231.9 152.22,231.226L152.248,229.57L152.237,228.77L152.237,228.472C152.237,228.341 152.237,228.205 152.226,228.06L152.1,228.055L151.496,228.08L151.435,228.091C151.379,228.091 151.337,228.074 151.315,228.046C151.284,228.021 151.273,227.999 151.273,227.96C151.273,227.899 151.287,227.851 151.332,227.818C151.365,227.773 151.474,227.723 151.658,227.648C151.783,227.584 151.928,227.489 152.089,227.342C152.259,227.194 152.404,227.03 152.518,226.843C152.576,226.749 152.657,226.568 152.763,226.292C152.844,226.094 152.899,225.949 152.941,225.869Z" style="fill:white;fill-rule:nonzero;"/>
                <path d="M161.64,231.92C161.673,231.288 161.69,230.856 161.69,230.6C161.69,230.469 161.684,230.288 161.665,230.068C161.331,230.182 160.985,230.358 160.612,230.6C160.231,230.84 159.941,231.121 159.721,231.433C159.56,231.658 159.485,231.87 159.485,232.07C159.485,232.263 159.549,232.421 159.679,232.544C159.816,232.675 159.977,232.739 160.172,232.739C160.328,232.739 160.515,232.68 160.735,232.575C161.022,232.435 161.325,232.21 161.64,231.92ZM163.765,232.123C163.792,232.193 163.804,232.232 163.804,232.263C163.804,232.335 163.748,232.463 163.628,232.658C163.475,232.9 163.311,233.081 163.124,233.193C163.004,233.262 162.843,233.31 162.637,233.31C162.289,233.31 162.024,233.193 161.846,232.981C161.737,232.853 161.662,232.625 161.623,232.293L160.793,232.875C160.506,233.04 160.284,233.148 160.136,233.193C159.891,233.254 159.596,233.29 159.256,233.29C159.008,233.29 158.811,233.215 158.66,233.07C158.515,232.914 158.446,232.722 158.446,232.485C158.446,232.148 158.655,231.742 159.072,231.274C159.49,230.803 160.047,230.419 160.763,230.124C161.261,229.912 161.57,229.773 161.684,229.72C161.698,229.556 161.698,229.38 161.698,229.18C161.698,228.553 161.609,228.125 161.434,227.902C161.261,227.679 161.008,227.573 160.682,227.573C160.345,227.573 160.022,227.701 159.73,227.971C159.546,228.139 159.404,228.453 159.312,228.927C159.284,229.049 159.226,229.191 159.142,229.339C158.93,229.475 158.763,229.542 158.638,229.542C158.529,229.542 158.44,229.514 158.348,229.447C158.298,229.417 158.27,229.38 158.27,229.33C158.27,229.205 158.404,228.913 158.682,228.464C158.953,228.01 159.301,227.673 159.71,227.451C160.122,227.222 160.487,227.111 160.793,227.111C161.211,227.111 161.531,227.15 161.737,227.222C161.943,227.3 162.122,227.431 162.28,227.623C162.436,227.818 162.534,228.027 162.564,228.255C162.587,228.361 162.595,228.743 162.595,229.411L162.573,230.583L162.584,231.436C162.584,231.55 162.578,231.644 162.573,231.725C162.564,231.864 162.564,231.973 162.564,232.048C162.564,232.207 162.617,232.332 162.709,232.435C162.798,232.527 162.91,232.577 163.032,232.577C163.216,232.577 163.38,232.485 163.508,232.293L163.6,232.173C163.623,232.162 163.678,232.14 163.765,232.123Z" style="fill:white;fill-rule:nonzero;"/>
                <path d="M166.726,233.192L166.701,233.098C166.701,233.067 166.723,233.009 166.771,232.942L167.2,232.853L167.815,232.744C167.865,232.719 167.893,232.683 167.918,232.636C167.94,232.569 167.957,232.385 167.957,232.073C167.957,230.391 167.951,229.422 167.929,229.171C167.912,228.907 167.865,228.743 167.798,228.673C167.729,228.601 167.556,228.55 167.269,228.506C167.108,228.486 166.977,228.45 166.874,228.411L166.902,228.186C167.42,227.974 167.768,227.799 167.94,227.645C168.188,227.425 168.4,227.136 168.575,226.782L168.815,226.79C168.84,227.033 168.856,227.573 168.856,228.403L168.845,228.534C168.845,228.559 168.851,228.603 168.862,228.673C169.051,228.333 169.28,228.027 169.558,227.743L169.734,227.573C169.798,227.492 169.87,227.431 169.929,227.386C170.277,227.178 170.524,227.077 170.697,227.077C170.914,227.077 171.087,227.152 171.223,227.294C171.36,227.439 171.435,227.618 171.435,227.824C171.435,227.999 171.385,228.119 171.282,228.213C171.151,228.336 171.001,228.397 170.825,228.397C170.75,228.397 170.602,228.358 170.369,228.275C170.135,228.186 169.984,228.149 169.915,228.149C169.773,228.149 169.681,228.161 169.625,228.213C169.483,228.322 169.319,228.542 169.121,228.882C168.973,229.127 168.893,229.361 168.893,229.572L168.937,230.8L168.948,232.271C168.957,232.441 168.987,232.552 169.001,232.599C169.024,232.63 169.074,232.675 169.154,232.725C169.684,232.766 169.993,232.8 170.096,232.817C170.168,232.828 170.215,232.836 170.249,232.836C170.46,232.839 170.611,232.875 170.686,232.922C170.736,232.953 170.756,232.989 170.756,233.028C170.756,233.056 170.736,233.101 170.697,233.148L169.878,233.131L169.572,233.123L169.121,233.131L168.369,233.131L167.963,233.159L166.726,233.192Z" style="fill:white;fill-rule:nonzero;"/>
                <path d="M174.506,227.346C174.614,227.335 174.706,227.33 174.781,227.33L175.138,227.33L175.611,227.313L176.235,227.335L176.745,227.324C177.015,227.324 177.251,227.335 177.474,227.372C177.491,227.416 177.502,227.455 177.502,227.483L177.497,227.541C177.393,227.586 177.229,227.625 177.015,227.645C176.717,227.672 176.494,227.722 176.358,227.814L176.349,227.887C176.349,227.942 176.369,228.012 176.405,228.11C176.43,228.171 176.461,228.263 176.5,228.382C176.608,228.744 176.839,229.443 177.193,230.493C177.458,231.234 177.691,231.888 177.914,232.429C178.045,232.133 178.195,231.746 178.377,231.287L178.997,229.541C179.137,229.173 179.248,228.792 179.315,228.405C179.351,228.243 179.365,228.123 179.365,228.04C179.365,227.959 179.334,227.892 179.268,227.834C179.209,227.764 179.075,227.711 178.889,227.672C178.541,227.572 178.36,227.525 178.326,227.505C178.293,227.477 178.276,227.436 178.271,227.363C178.301,227.335 178.338,227.324 178.377,227.302L178.833,227.302L179.315,227.313L180.053,227.302L180.524,227.313L180.638,227.302C180.671,227.302 180.73,227.31 180.81,227.324C180.855,227.346 180.883,227.394 180.883,227.45C180.883,227.503 180.866,227.547 180.819,227.586L180.671,227.614C180.384,227.647 180.167,227.722 180.014,227.834C179.939,227.887 179.861,228.007 179.805,228.193C179.788,228.257 179.758,228.343 179.705,228.452C179.685,228.513 179.649,228.605 179.602,228.744C179.552,228.881 179.493,229.042 179.418,229.229L179.334,229.441L179.32,229.471L178.076,232.757L177.16,235.236C177.109,235.358 177.034,235.503 176.959,235.695C176.773,236.038 176.661,236.23 176.633,236.266C176.483,236.447 176.358,236.572 176.252,236.65L175.876,236.803C175.801,236.828 175.725,236.84 175.639,236.84C175.422,236.84 175.258,236.792 175.155,236.689C175.054,236.603 175.007,236.464 175.007,236.302C175.007,236.146 175.079,236.004 175.235,235.868C175.274,235.857 175.33,235.843 175.377,235.82L175.472,235.793C175.909,235.868 176.182,235.912 176.285,235.912C176.388,235.857 176.461,235.793 176.514,235.717C176.756,235.366 176.956,234.96 177.129,234.52C177.299,234.08 177.388,233.782 177.388,233.632C177.388,233.462 177.324,233.217 177.193,232.908L176.383,230.752C176.274,230.468 175.937,229.566 175.383,228.012C175.347,227.929 175.302,227.859 175.252,227.814L174.748,227.645L174.598,227.614C174.506,227.572 174.467,227.525 174.467,227.455L174.506,227.346Z" style="fill:white;fill-rule:nonzero;"/>
            </g>
        </g>
    </g>
</svg>
